<mxfile host="Electron" modified="2023-09-03T01:59:00.689Z" agent="Mozilla/5.0 (Macintosh; Intel Mac OS X 10_15_7) AppleWebKit/537.36 (KHTML, like Gecko) draw.io/21.6.8 Chrome/114.0.5735.289 Electron/25.5.0 Safari/537.36" etag="SriNMywedtMws0E1KaQT" version="21.6.8" type="device">
  <diagram id="ffM82o38ks0iRzHHVNdG" name="Initial Release">
    <mxGraphModel dx="1057" dy="899" grid="1" gridSize="10" guides="1" tooltips="1" connect="1" arrows="1" fold="1" page="1" pageScale="1" pageWidth="1169" pageHeight="827" math="0" shadow="0">
      <root>
        <mxCell id="0" />
        <mxCell id="LouCBtYuXIpQoT6YNALT-2" value="Region" style="" parent="0" />
        <mxCell id="LouCBtYuXIpQoT6YNALT-4" value="" style="rounded=0;whiteSpace=wrap;html=1;strokeColor=#999999;fillColor=none;fontSize=20;" parent="LouCBtYuXIpQoT6YNALT-2" vertex="1">
          <mxGeometry x="240" y="20" width="690" height="400" as="geometry" />
        </mxCell>
        <mxCell id="LouCBtYuXIpQoT6YNALT-12" value="OCI Region" style="text;html=1;resizable=0;autosize=1;align=right;verticalAlign=middle;points=[];fillColor=none;strokeColor=none;rounded=0;dashed=1;fontSize=14;fontStyle=4" parent="LouCBtYuXIpQoT6YNALT-2" vertex="1">
          <mxGeometry x="819.9999999999999" y="390" width="100" height="30" as="geometry" />
        </mxCell>
        <mxCell id="LouCBtYuXIpQoT6YNALT-544" value="Compartment" style="" parent="0" />
        <mxCell id="LouCBtYuXIpQoT6YNALT-562" value="" style="rounded=0;whiteSpace=wrap;html=1;strokeColor=#999999;fillColor=none;fontSize=20;dashed=1;dashPattern=1 2;" parent="LouCBtYuXIpQoT6YNALT-544" vertex="1">
          <mxGeometry x="280" y="30" width="600" height="300" as="geometry" />
        </mxCell>
        <mxCell id="LouCBtYuXIpQoT6YNALT-579" value="Compartment" style="text;html=1;resizable=0;autosize=1;align=left;verticalAlign=middle;points=[];fillColor=none;strokeColor=none;rounded=0;dashed=1;fontColor=#999999;" parent="LouCBtYuXIpQoT6YNALT-544" vertex="1">
          <mxGeometry x="280" y="25" width="100" height="30" as="geometry" />
        </mxCell>
        <mxCell id="LouCBtYuXIpQoT6YNALT-223" value="VCN" style="" parent="0" />
        <mxCell id="LouCBtYuXIpQoT6YNALT-228" value="" style="verticalLabelPosition=bottom;verticalAlign=top;html=1;shape=mxgraph.basic.rect;fillColor2=none;strokeWidth=1;size=20;indent=5;fillColor=none;dashed=1;strokeColor=#FF8000;" parent="LouCBtYuXIpQoT6YNALT-223" vertex="1">
          <mxGeometry x="300" y="61" width="446" height="240" as="geometry" />
        </mxCell>
        <mxCell id="LouCBtYuXIpQoT6YNALT-235" value="VCN (10.0.0.0/16)" style="text;html=1;resizable=0;autosize=1;align=left;verticalAlign=middle;points=[];fillColor=none;strokeColor=none;rounded=0;dashed=1;fontColor=#FF9933;" parent="LouCBtYuXIpQoT6YNALT-223" vertex="1">
          <mxGeometry x="300" y="56" width="120" height="30" as="geometry" />
        </mxCell>
        <mxCell id="LouCBtYuXIpQoT6YNALT-240" value="" style="verticalLabelPosition=bottom;verticalAlign=top;html=1;shape=mxgraph.basic.rect;fillColor2=none;strokeWidth=1;size=20;indent=5;fillColor=none;dashed=1;strokeColor=#b85450;" parent="LouCBtYuXIpQoT6YNALT-223" vertex="1">
          <mxGeometry x="362.78" y="110.86" width="328.5" height="138.14" as="geometry" />
        </mxCell>
        <mxCell id="LouCBtYuXIpQoT6YNALT-245" value="Public Subnet (10.0.0.0/24)" style="text;html=1;resizable=0;autosize=1;align=right;verticalAlign=middle;points=[];fillColor=none;strokeColor=none;rounded=0;dashed=1;fontColor=#FF9933;" parent="LouCBtYuXIpQoT6YNALT-223" vertex="1">
          <mxGeometry x="521.28" y="106.86000000000001" width="170" height="30" as="geometry" />
        </mxCell>
        <mxCell id="_kVQEKYmX-MvldhjZqGz-29" style="vsdxID=4;fillColor=none;gradientColor=none;strokeColor=none;spacingTop=-3;spacingBottom=-3;spacingLeft=-3;spacingRight=-3;points=[];labelBackgroundColor=none;rounded=0;html=1;whiteSpace=wrap;fontFamily=Verdana;fontSize=10;aspect=fixed;" vertex="1" parent="LouCBtYuXIpQoT6YNALT-223">
          <mxGeometry x="280" y="271" width="42.52" height="41" as="geometry" />
        </mxCell>
        <mxCell id="_kVQEKYmX-MvldhjZqGz-30" style="vsdxID=5;fillColor=#FFFFFF;gradientColor=none;shape=stencil(lZjZchs5DEW/Rq8oEuD6nOU/UokzVo3HTinOor8PNGoS7Mt0d/KmdEAfEssFyJO8+fr44cvDid3X18vLvw8/zp9eH0/y9sR8fn58uJxf9ddJ3p3kzeeXy8M/l5dvz5/u//7y4WZ5+/Xfy/fbX/h5X5eZ+LaI3fX+oVYq/v8v7+/2H79d7gv83SAVqmlZ4nGN+8mLVaQii9XyqRZKcbGSxUpIGn75VBNF2eW7Duv8QIHX/FjJFeB7CnnNj4WCX/NLIV9H/tP5efBX8JTDymHTAtywLmF0mKOY1xsOjtjDhpnKer+iLizgr0Ap7eElk0e8+hj8JXHGZ6oQLxFyGK/SAr3F13jxCfMlQ76wRiKu+d65NZ0TeaTX5pANOgvlMtElAd33eAzZGsKa72tztfEzud1q8Zkyej9OwfeJOABfOqzzNUYCfM3p3ej7QAzeL5U4Al9sl8unknrYOl+oVKiWQLLrf+U7qNbiLa+4W2VQi1wplun8Na/5OVM8cD+cPkcKAnRVNAa6OgSSz5nsNThT2JEK3W5P/EVuErm8u91IAt7SNd5P3gJpG43EAg/BOsbzFCxb0/FavFCpMRIIRbZ4Nrhq9B47Nod3svYG0CiLQAP7KUxTiYa+361TkwA65C68C0j1Guoz6Jnh0KrgkJ5BDnqDA7DrXdPIDMGW3ygTQReT1KRi89A95ZtOW6Waw1GVRDNE1uww1YUqftjNs2RdrMm0luCaXazPNpHWpKpw7rko1Yp3E833mBjdNtRrTMML/fBmhXzdEs/8fUWsVAPwNd/mjlQh7jcfAV8jlKDI1flxxV+Lkk4DvYd0YUu7LUxzKUCuqGJmLM7Yd3e1roYOG61MqBLv8oc1vse9ZUfn5z7ddRHvw0rPVTdNEOEgXIGnBu67GPThLZFAtsLsEp3NozJabMmhTFOuWzNjJkAO+2rztVLD35038VScgx/bdB/Ig7PHkMhs9afBHtf4OY0af55XxpSUfpQ2aFyti6+TfV0d2Qbjay+n/QEzDxcNEzOGBCncp45BTgoMOEUzHYTcrDb4Os21W9UgZwXkTKdJRn6xS1ObJnVigYCJb7eHDb7Oyd1lrWAFxbyP8ler1gRws2mZ6g9mO4fdM7Zh1M497K7VqgasHp5bJ4uy20ZGj7aaDTay8hydYVaDo/8m7ma1Ffc4qfL4lxs/UD3Gh+kWPOGhTqpNBssXbuKztV8/tb2stY51okMIFLbWZJLJX4yzeD3oYnqfCaDjWpQRpw6FgbDdgjPhC+A1zu4oXA7vgTwfX6ZpT+/3BfnDC4i9mpTdYsnFOpRVLr7a5OH+0fi110Yf7u3NyK7hZaUSkC6Hj0x/a68/7EXr8/np6f4gNv4/voDpp/vrmbz7BQ==);strokeColor=none;spacingTop=-3;spacingBottom=-3;spacingLeft=-3;spacingRight=-3;points=[];labelBackgroundColor=none;rounded=0;html=1;whiteSpace=wrap;" vertex="1" parent="_kVQEKYmX-MvldhjZqGz-29">
          <mxGeometry y="0.5061728395061728" width="41.50761904761905" height="39.98765432098765" as="geometry" />
        </mxCell>
        <mxCell id="_kVQEKYmX-MvldhjZqGz-31" style="vsdxID=6;fillColor=#FFFFFF;gradientColor=none;shape=stencil(nVrLchw3DPwaXVl8P86O/R+uWI5UUSyXLCfS3wfMLgGyscNx5SaPOdsDEGg0QN6FDz8ePn+/v/P2x+vL85/3/zx+eX24C7/def/47eH+5fGV/roLH+/Ch6/PL/d/vDz//Pbl8u/vn/vK/tdfz3/3X3i7vBebya2/5e375Yk3ofz34NNl/e8/Xy4vuMv/J2dqvr7h+JV6efLmr4uCaddH734sauW6KFwXJVOvj96vj6KxbQteTEkreDLeAXgzwa/g2VS/gmdrYljBqyl5B56dSXEFd9aUFTx74+IK7sh0B+i0qq3oLhm3dTy94xG+sBGM70wJgE97nJX14HnvTE4z/NPjtylOCrl5bOjlSfCm+N33lmyKW783OOPy+r2lmoiR0kxr6/dW2q0EH8y7fIBfvYmAT1t8NZLxazTJAX41CeCz7HzgRXUbqpV+pQB8Mx7CpVllfrAjEBi/Ubis8OTJtLW+hbE94n3PmcvwkV3N8NFAsDTKU4Qnh9QtfDY5ADw5BOGzaXmFj5a/m/EpkOqKH/2gjg3+Ch+TsR7gk2lAFLEMBhL4qOGr2e49OT8jTSmm6JsKkZfoUQV0azwwBZHrlfKOQy9C6KXI5MGRn00EpqJVBTMvjnog+NFs976S9U7BV2BpSs+aNHwEeBX5tCgv1gNRUWSOwLs+8ePJEVFNFDQeBWYF/l5KS/heIkULxF4d18LxwfRFdVtXyEb0F30SZ4FnrwbIFfqkCuFCqxIQJT1yW/tpARbVmlRJ7/jAVLWYrPcrgv21mW2qkssSuL+5UYoX9wNTUZYlgO9bCURN6bt3P+0PSyBhjwHGdSqyrYxfhFECx1qEbKVVfmt/sSZAXad3Emx/rlw6J3wH2Zoz1453Yc/t7ufInMPwiSvnJGsiRH8D35PycOh7kiw7bFJqFapEL4grdKqqRhHBeQh8WgWGE7/ZeEwUVGh4Qw9ewM+lVwImyvQlo4A2pSgmo0YBrUoAnjmLam7FjQqilAZ6Uvpz3s4BH4TMJE78tqhN4m2KUwfWe71bPZoBvwtyjBXKk22eUnOg8hRKKjUZKkmzUlPeDum2kMR260lDO0xSXSPc1J4MfNHjA99lqXzCkXlLEtQdNHB+Z1/ETyZhqiSOWcZPXOXnGnEGD77vxQe0NBlWwP1EyBk4ipzUIFV7idySFLnfY4mM3GLy9ks9ZPzAhMzb74V0hLbTRlM4Ds1BFUqEqA/OQgKigQo6LKl46UoJioqbRHrAVUf40nPOGgyKitMO60IRJaixEK5dgaYdPDkMeJ2krQf0ZDKCW5UsUXVeXXxvgyUYyFQS9Q6wvfSmQ/mnwf4SKSIlp75jS5JeVYg42cTgaPjcGw2KNuD03nNtOSLK2GN4IjIfiNORIXpbiDKK92ruN3fYVfh8YItensKtgIbpLTGAU+iCguy/vi0NLip4L6J+oqcG9NQHAsjOVTJnGjVsN92qytxnGMhOnscw7HonPhpYPAIT3+OkZWUnip28spOa5agMEeH+LgybQXIHSZt3KXAR2KmvAjrvo6ztfoUpwCbCUvAVJ1lWVROyvgFB1EGqxzLOQpJm1Z5GJwMMTh0wPYoCmAaY296YWAYDlQs7QxfhHWaMAKQ8D26ZrtbJLejd00nv2WTYnhhWYOZgwSzP3TLvp8o+Es8eOfdk0kW8GEEaFdW/EBNW4D3nuO9i9KiUIcVy3Feb6R0Zy3otyz0a30ZfLvhJyeLOLZtdJe9wJjHz7JNf9n0mSwcOI1zIffKqhRpFhlbk6rPJYNeoeH6QDQrZoLpdWoS6SOv4nsj7qawatZBZCWf4Ov+qUmVRD0UtqEgtTHAe7tXhhRNtLqEboH1ykkkiDvK2gbFKkXXmhBJlV2TiwAi9E3XAmJ5h1MtD5AzhFjOPssTsBEKYZF4GzvMyrh1C1O5nS9FoGVpwtKHHsFH1TFXSV06v4j7QLe8bo2fdsnkZFQ/4oiI9qQ1PPPy53bIk8fovvdADZCWS4sYs7cjAqmKKGinVY2SlOPssrSgL8TjudG7qpFVh/CYiXqgEHVydaMMgq1Z4aonbviUP6jiwSilieFIEBeC5gZnNd2B+cyciysmQchpJoPU3JhKJc5jhm3Qk06HLvtOh4u0BvnKfzGUkyGnxwJdefhoHcfAFXrWvI/2UDsdhjbUg112rx1HNQPAFbmcFvo7KdsTlySRlvdUKGitJP5iC2CPN4yD4TofWvavUm4+xTwSOx/DNqm6PhFkG79cKub+SBfFYG9YfvHDj5F5tl54g9SkuZEs3S59e3xjyb6M1k/jESXNWZyw5MhbDVwPBmrP02RIt+5FEvhmseMaBIwln7QpdgjqMo5/ZF/6SZCgn0Di0LkXnSWU7Gb+pCtx4mHl8vIP3RdrN06WImRL4yGE6jFTHK+7sMDSJtJChPU6O++wfT7eyGh32VZgpPII/xm+gf6ozEPd9SouTUxm7TeY7oOnzw8UgnyyT04zudxJYA98ryUufhOGnRMJKFN07q6o4kSHzcfPBC8rCLAeTQjYBdFYnqNXABFXg1kl7HolydNDv1eFZknh7k0huWmJGKMI9K/Ck3Z8EV8vqAC05jQ+RTa19BVKjZMczgVjO7lg0UXYyBcAKzCTG6CIJpJOzgO1O7mLJG6Me6/nV/H1TQcbptracavu+hW6w5yGoUjLvjEz7GoLrPe9d5LaWzNEk00YLA4c5MqWBxyt4N2K+D3/3hF7VCEsa5olP8bZAF3l4W0JfLqFVYX9bwalK7qUiT/WsaPPxGLIkpbw83FZY6SkHudR1XW8Hw/36+Xqf/AAB0yqQ6aTccTw1LZrapi1BTa9I2xKTAleDXuZ1QQ/qaksbo5xj1YW3wIqqPfO1Sp60YqBmq6bMfDJ0pDirksgB50y9uIDgczKPlU4/QJS4sYFH2EFd/tP3Gpw6rAa5d2PGu8xgzwa8/38x/SE3hr8+Pj1dLhzP/483jOnR5XZy+Pgv);strokeColor=none;spacingTop=-3;spacingBottom=-3;spacingLeft=-3;spacingRight=-3;points=[];labelBackgroundColor=none;rounded=0;html=1;whiteSpace=wrap;" vertex="1" parent="_kVQEKYmX-MvldhjZqGz-29">
          <mxGeometry width="42.52" height="41" as="geometry" />
        </mxCell>
        <mxCell id="_kVQEKYmX-MvldhjZqGz-32" style="vsdxID=7;fillColor=#aa643b;gradientColor=none;shape=stencil(lVzbkhy3Df2afWXxfnl2nP9wxXK0FUVyyXKy+/cGvUMAfdDN3n1bjdiDJgEcHFw4T+mnPz7/8vunp+j/+PH9238+/f/51x+fn9I/nmJ8/vr50/fnH/TXU/r5Kf3027fvn/79/dufX399+/fvv8yV86//fvvf/IaXt+d6db7Mp6J/ffskNlfr35/88+2Bf/35/e2J8Hgku9gejwR55vEtL/GxKrr1vY9PYnc+PRalxyLven2sSryqbcW34eb/HsQPl8dRfGuu5aP85F1pR/mt8ks+PknBjajFf3n+qo6rBhePp+VdHLvXrXEt4NcNfX3Jelta1NPxbUNxvRzflla1cXzdkFxuN+L5HJb44Pww8sNRPGtBpHs38lF6dS3shJfhGlhKdrUdZZfuAgiPboCiSnUhwdZd38rOLpSjbO8qnHshbYNsfxSch6sg2O/E5uYSij3KzMWFCDLlxZbY9NH95mD2q45xucBAp1T6WB7QXQLRd3pOzQXQs7KfJZt8DW1cWWLiVbl/0MbnM2jjyntE/uggXxxRNu/bUbzx8CMiROVgFxCC70uqjPC+iYXw+4bhUju+L+GcB20FsrcAL9zXgxfy6XAimkozfknH7hHBmytwYMGvzYr85kbaye8CY0FeOR3FV1kku48dYIHth/GbfGmLx2RMcPSMfS8MP74eRae0tiQbd7Btsi+/9RJvkGFaG2jdg3vSQ4DD3gXYc44LP64l96PknF1HfWMIICjzEIEia4Bl9xUVrs8boKFQ0M9H2UqP65O49MTxxw3Yd0kLKy4NrYOhUVQogEsThACPC0E0SCdvwGOfq8rWz5K8csBnRH42lk6rPFg6+WyBo6e9HP0MgCm4vPD2wXbSDY5PyAFDaZnhjV+4cbhaL0w8aqEQvzB9BB7SCG631I42uRgixxECxmAOLAK1I7KZERizfNdim3kZ3rXCOspvp/KRLQ3WjlJYAG45gmt7g6niB4+PRmKGos6/wP5HcQ3lK10u+RSmt/4yQS2C/C47W/CYTGAaRMARKoohTrSq7QNjMw5LzwyASIL4YOVXcFiC9QipBe3lhsdkA9F0Zg32T0Bv5FcJ30s+aQn1n90eKjtHGRYfJeIKh+tgfsMb8RQ4mGUu828A1Ue8ILK+QOf14oETfo94MSyRocQhQjzV21rwHliF+ry2+qpphVyRT7AD4rPJrbRSl/hqeMytudRhxQ+TCLcgCeDyYA9ZBiGzMZaxgPcqDy5iByI9Q1SnPHjg4XcHlIJSagsVcbv3rtS1pMsLcREgIamYeAaeSrDsUfNhKei6BjHA8giDMb3rxSDVxHOUX8SfVaS4lY8ZD9k0bj8vwBX53sqPgnoqUm5ZLB1/AaScMRgi9dQrRIoZz7EI0kxZYTKFDVSQWle28HrBRU4OLAO0apYjCouQc2jGtA5M1azey8VI7z0b+RG4YJc4wvKzBCCxTsyQC0eOC/nDQhXR1wYGO4SeKiLMq5b8YqpmJawU+Eq+TdGJhyMXJWhAapMNWtAihMpcb/xlqDLKSkFIZUjFPaY/yWHaxUuWaKa5V6SKn1hhdjDYvkT7eivMklfc7juVBUNX+1YHKiQjovhmGAXRFxRvtZ5o71tCpe1JKg0BIqS2Tcm1MQM6sXpKsPZON0yQmBQPna4ZlJqFBnC6E6enVccADSh1X9r+8APH4nmLUrpk+hG2tZfmLcUWPsmcpQuxEoqPKQZxlg61n0mZ9uVoAj3kmORkSNmysQhSfwdfJPoVIXAQ/dsXQWrkIjwHzs5RUtWjcf+knID7V6U3Cdxxi4P0zgEckuJvCnb/EeR7Ll+y/MLFGQ6cY3nXlfy66lMSuJtJsUn/GLelHsZx20uwlH7GnjNKnV9Yg4fNN7t5WhUhvyf62ZqRPvbG35gi6c1DEMRqCO6bNIFIQB/V7cZ7wI33aBKVyWkh+vZsNq5XCTaFO7pWAYfJ6rEKNncB7GeCLtK1buIAeXDcAjGdsgevG9KGUIpH9qOxKYkNIeog6h1x9R0wecTVmbwea+rSc7zKnceqrcgJB4Ors7cBJ0zHiaWrJFCjTDtsIsfkKccXJmzYvm8W8vkq0NDgfXNDHKhNKuXSoirgibLqKnMPpi2ov3lxz8RVYpZfTepcpPj0ms53D03UKJ3Ei+M1sOm5n8TI0THTn+UI9N9g7Ld0yYjThXWBdu/N8cMPHA0+NG5grwfq8pkrWqsekRwrAKSEbpo4E/iwVjsceHTnXvlVqc6bdmOT8hWXCoNBlKZGBRaPS6ZUSQbRt4gaizRIJZTh9mMz26e4hQUIorGY/9Yb/yEWjXDTuEsqcBMl6VXbh3wqJZt/j9WCupJvt08qy5BXzJYUpDVT+4AfqTrLovYsNlXT2J8Ga6QXJHHS62fpNq2htGFfTEjSn+FwFmzDOZnm/qS6EeRHge731h2n9m04xepPVOVcCafY8J4mivJ51ZXxZ4dl6mo6ibONiWXqwrJYvDctPTqkvfYJVBB6Jk8B5FH4JNrHoRK9SpGpTVb3DqgEbE3SLnqoL9wUa4L1LnlGdlilBhh5lekTd+nWiMP7rX1PcLVVA0zbCVwTgCs5RkX7Ut1s1ZrY2vecaYDqKvErZAdqvoTrNfJKSj6IJ7IU922oaHLUSZfQvVQ9YomvplYXhmkb577y3Wv7RrZOHAvbQFP9WKskXED1FwytRL0exPu6C4njGfQMGp/dfQlYLBu2Z+xX7esqUzBl0rl1LA8YFk1nWgDYi4Nq0SwS7jmx2XeWagWjuuTPl0VCtUaqhDcB3aTllCtUUHk2slM1dTI7wJTukpcuGCxDKcjkvLNgk4BJaaxLuOocTu/REXOzw+rZMt/PpUH1NQTT0Ca6jFXvwe2dF9FgRZK6wOZKdDR+XB1mWGpMkIdRMnAEMkO0p5sZWUrcsPJpG/kzccNBI+GQqrIfUPieHlDahgO6mY2Sk6Vs0LvwwIgauzSjgH2fWNqNd654qpHPAoceoCNabLF9Ws5dOxr9KCQz51QG9iTnsCDmtF06h0JVtk5cJLFh6UNqhpFPNANuUyDDaR9SjpmLjjfDGyWZQeOYZGJOgkQG0kCrOtCyPEw/WlZdmXw/k4/F/jlUhvtP2GEif+vNiN8bPTkyDqVHM7pCoQLz0TlXCwhOuNFw997tpQd5Y1H+wM0H0+cJ3Yr3JnzJyNUlypq2whzAwsmZYUdg7ahZhg4b+VDb1b5uAsLHVkODJclAFGuwx+uvr0EqzILE+46INx2JLLNLGjWQ8ySjOsIArGSQMe07MqXIOJ1YE1YyyLsxVkydY20rsM45/rMZnk/9qCcept5upiqLnZKKUl/mF24yTrRcrXAI5xceZkwpJgjrUEyWULYIS75rOyQzHz6HwcE5mxrDEH8BJkCLLLPcH5d6RHgJDh60k1wqmesy2h0kmdp424f95x0PHD10xlwYBUnLeTZhGkcRioMDKTx8JfSkmQ5caaYXMy1qH6erEEmBAJxcKvaWRo2meFOSoQnzKs82wyKPw1GImnD7M+mC7delaQHqxpccWHq6mQjISIiVlQklTnbnKDuaKnq9G73PdufTFiBIEaw1OPnSTHaZ1TS99CHK1hN1+BPSVLORj0FaqUzJx6GtzIOZm/0j0jcz3koni+MQuRpmnrNNC8pNjpuL2T99DSbY06qwrpJMzT4P0VLCVVeWH22Cn8y8ZJErSa9ikfY+WMayUl0R8kp8t+K7HKwEepxWLV6ChaBMBMcvy4mvpmvvcPLDD0BiLpM1V5EcqJh5wHCFEwvCMkn2JpidsOzJaNCCgyH5kyvdFBNMYVTik+7ymhqRpR5zwAtNiG9Bnd+oqMIBz6OvqWRK/iyxf0BSMhehwUdTVtKrVFHrTjreOBq2T1D4AFVVayXfLD7LKilrjc1p2SboZHZ7gIzSeJc+X0GAzA60O+knppDNZtAfdQfzwNHhYsGB+dmu31BXOtZ6fGCy732nSV2aFBTFTkBSaBh5Fd6hnassZu0jpvpiRdVwqqIaCyr2pmAS+qa42n5aizwZOwHVG+aeFFQKY8GA5e2URIIpc1BXkhD79gnlHvsLTCnYAadkptuivdlJ/B/xiawPHK7d3fOLFS836u9VWZgVjl0j6+4twu0pKCR3HOooeLwn142QD5Vomtgx2ftxUu1Q142QDu2d8cPe+44H7qZD6ZN956kO6SmJBnE4sJkLQDN9xB8LMDXrlmE2EwhHx4vM5B97Qk2+6MHg5uQmvG4whYAq0xPq+g8OEc0LSftZzmj60LMAA2xAEjJ9pwCvC+pVF4TuRHzHPl00I1xV9VIlncAuMa3C23KzT7hRF2mTE1Q2x/2lkSadDX0HAMc/Zfb6+jJut2MDxt1t3Qauo8Yl6Lpug/2bZvHhpG7TZHx4M7VovPFuatE8AP4uPybC/Gw/jVtxjIMiGeYjrdnb6A2DW+tmdzJXcyV98P0LfTUBvOdkJjVFe4Ur4ghRumtXqGE1NWOBu58j+bj7YCaY5kVFiFaJ24XXdxNwhgeRYwQhTGrvcPYjmin8dHsb6GTzxUyBz3EdPHvLq4byaqn55q3u531hzOOCaRcMwxRyQiAYfFNO1yHilqYM+9Ms+rcGIp8rjk+d3EUKZgR/VibuFI9RwzugaHL19TBeAaBydhGNV12JT6xBNd2RUH6wv4jgzeQvuTDOWPQbzZ+M4M/CCf56UjW/E5PNj0HYH09CwANAvcNH+kN+puq35y9f3n7lSv8//qwVffT2k1jp578A);strokeColor=none;spacingTop=-3;spacingBottom=-3;spacingLeft=-3;spacingRight=-3;points=[];labelBackgroundColor=none;rounded=0;html=1;whiteSpace=wrap;" vertex="1" parent="_kVQEKYmX-MvldhjZqGz-29">
          <mxGeometry x="1.0123809523809526" y="0.5061728395061728" width="40.4952380952381" height="38.9753086419753" as="geometry" />
        </mxCell>
        <mxCell id="_kVQEKYmX-MvldhjZqGz-33" value="&lt;div style=&quot;font-size: 10px;&quot;&gt;&lt;p style=&quot;margin: 0px; text-indent: 0px; direction: ltr; font-size: 10px;&quot;&gt;&lt;font face=&quot;Helvetica&quot;&gt;&lt;font style=&quot;font-size: 10px; color: rgb(0, 0, 0); direction: ltr; letter-spacing: 0px; line-height: 120%; opacity: 1;&quot;&gt;Virtual Cloud &lt;/font&gt;&lt;font style=&quot;font-size: 10px; color: rgb(0, 0, 0); direction: ltr; letter-spacing: 0px; line-height: 120%; opacity: 1;&quot;&gt;Network&lt;/font&gt;&lt;/font&gt;&lt;font style=&quot;font-size: 10px; color: rgb(0, 0, 0); direction: ltr; letter-spacing: 0px; line-height: 120%; opacity: 1;&quot;&gt;&lt;br style=&quot;font-size: 10px;&quot;&gt;&lt;/font&gt;&lt;/p&gt;&lt;/div&gt;" style="verticalAlign=middle;align=center;vsdxID=9;fillColor=none;gradientColor=none;shape=stencil(nZBLDoAgDERP0z3SIyjew0SURgSD+Lu9kMZoXLhwN9O+tukAlrNpJg1SzDH4QW/URgNYgZTkjA4UkwJUgGXng+6DX1zLfmoymdXo17xh5zmRJ6Q42BWCfc2oJfdAr+Yv+AP9Cb7OJ3H/2JG1HNGz/84klThPVCc=);strokeColor=none;spacingTop=-3;spacingBottom=-3;spacingLeft=-3;spacingRight=-3;points=[];labelBackgroundColor=none;rounded=0;html=1;whiteSpace=wrap;fontFamily=Verdana;fontSize=10;" vertex="1" parent="LouCBtYuXIpQoT6YNALT-223">
          <mxGeometry x="251.26" y="294" width="100" height="40" as="geometry" />
        </mxCell>
        <mxCell id="_kVQEKYmX-MvldhjZqGz-34" style="vsdxID=55;fillColor=none;gradientColor=none;strokeColor=none;spacingTop=-3;spacingBottom=-3;spacingLeft=-3;spacingRight=-3;points=[];labelBackgroundColor=none;rounded=0;html=1;whiteSpace=wrap;fontFamily=Verdana;fontSize=10;aspect=fixed;" vertex="1" parent="LouCBtYuXIpQoT6YNALT-223">
          <mxGeometry x="280" y="91" width="36.67" height="40" as="geometry" />
        </mxCell>
        <mxCell id="_kVQEKYmX-MvldhjZqGz-35" style="vsdxID=56;fillColor=#FFFFFF;gradientColor=none;shape=stencil(rVvZklw1DP2aeXV5X54D/AcFgUwRktQkQPL3yEzL8j26Vz2T4i00Ukstazk69jykN5/f/fzp7UP0n788ffzj7T+Pv35595B+eIjx8cO7t0+PX+hfD+nHh/Tmt49Pb39/+vjXh1+f//vTz1Ny/uvPj3/Pb/j6rJeGS2lqRf/t+ZPhnR//ffLTs8L7xw+bQk4uxINCr64eFH756+nZRLipRLERlk5pzx99jTep4Eq5ScUllW+2vqablHet3qTSkorp2mH6hS2jwz5YDpOKz+BwcT0fHU7dpQoOF1fL0eHUXO3gcHE5mfYb/6Ldfopgv7rWlf3QwX51qSj7PhoBy64d45X5GM7lk/PlqJD4kM4VghsdFWK/VojD9XFUiC5mUyHAmQfXzTOPfQV4xTys0HHMI51mhJh7N/Ix5rG60SDm3hXDX8mum7+NstZSoDM6VmHrHNRzhbQyUxRCNSNCMT4GpDVOHAmIdx2qtpWVlxyQMBwUbaOcMlIkdFfr0d3kcjMUmusQkAhVBgoVk7AFSHMMCKmUABGhdjSOESEp3yAinkMtEaFOkY4hqYO//txhqu2Dv7Xf6bshS+cLSycE8JdO4uhuba4kcDc7DydYKYB2uJLkaFg62MVIqqL96gJ0UZLKaL9w6K/txwb2V+cV+9EN6OKV4tbAfuRyFPuZv/7KfnQFw78a424/QhcnqYi/P67DZ/ORD/fKfJAfFpZOwmwNqn5JyuPxBzV1a+AKvbafMfzULLqyHzH8fn202fcwRAu3lPNiIUvHIVbuVotngeVvaSuEy1/u48tdEooB3PUuQf8v1e530iHY38JRuPY3wPmWvJrg5q8P4HCWLLh5NyRV2N/khtE9N4WbfOSaOZX33y+cm0tGWxwrpb5XfnWbi0BvGgxoy0oVI84kpcp4YesV6LzO7Cox4hH6EACvJpLZVQSBd53IFR2OMhzE4TVW2eHAsPe68D2g1yzGNvsDxmSWCtwLH/ouSeV7jS9C3507gG58GeYOSakxHRR6J9hf7PhT4wWYQIBexT+o309SDeOv+j4JmbvDnCcQfVoBOv76bTbJOqHabpQNg80XgPYnU9fjr98KQaZ+jGD/ZOrS1Ef7+V5bTAr00ILStP0B5skWJl9e9bDMJ2effVZbRIpyqgK5Ggy9uRPBFjEBH0DEhLWnIGI9Nrfk7yVrdXBa27K1QVrMFpJS2dLk5HkR6oxyXwjaZb+68rcLEghLR6VXlwHMDm9FkJZUhbFHUsVYu7Y95iZfODJXS9S2H/FHWfm7rVr8SVoUxNoqtxWOP1pZc7Ul1uPwIAWL3Jl76BE2xTVMzhWq9LoVomLCYjquAuMpyLq+ItJdOkaETovXia+SXgP6wzx5mxiAHzhz0GKPCB8f5Su38ksyJKFCstmmtLiwb1KVHugxanwBcoTKvSPbRCcOyHM2BcthWcm+LQVvRaS5I5EQls1L/i2igjc8mhQf5FQyMZKmJEnByoIT0pPT+FS+eOEDd4h6KkzrS+uv+fKGX37He9p80lDxMR3KQR2A2bVouVsRlckWYYxVqQ3FJXBC0jKJI3zmi3GatP12cNfoyHOjryBtzpzagEahWjtyjyoYTZCi1CfyCCSFbGzYSG4OR0c8R0LNOOy6kcwXDUj5u3VF9rcJo8L+DoX/SSqDv80LlpYx3410xtLtDPTOpal0IZeHOYFb5trYJlSyLBQ5PZmBRr9qG8u3FLpJHbTGVJgMeUiPNiSQPOLywsAc7u4VzTURhhHuHhz8usrk3YWzfVtpwtLpMG66Xk+i3Eosf7dlIy2pYgCGnrDbTYxozkdSQdp1ok8IMEkhjzeHPWDUnhUzQxA5Ww5nOdsFCeyB3otawFNQoLpvDDDP+OhgnpPQgPqbCMPo9tvNGvub4a5E+VsZAom/tKFggJvitediB/2epOJrV0bSwQPel1Gx34B6mzdgTdkfuDS1Ow2+Cym+LexIGPSuV9aumFKSwus2krLvFUgnQ0WSTlfmO5of+ucju+TNq7sudcTsUgDsoZwdahrmuFit5a0sSkIudcyVoVhlgnJm9xjSlW4K+c4twLzOhgVsEnOQ3CSF6DrLMr1oUr/G6HK4suI527hp3BQwG5HvU+zna8Qns/oqd16vkHjpuA44VlPJqyFuAfdIpG89J+nzZmK6wLWlypAGzHRluHyd0cijN7WP7mkvxD8yCns9sb843tDfo7OEfuxeubUBuVVBZN67Anfz7gXrr6thSJA+37MfoZzmGqCbFZqPkgLXrXpeapnWtxkgV2oRjG/jRG7UkFk9GVQ1A1Y9MY/vQurJoNzGKdsvGjptc3q70TRWgYkFjtlSq7MH2wYxtmUGD2uDK+xvX9e9G3JaOEiWmWr5u2Gtm8K4l11J3Vk2r26sd0AoN+wNs3tDmrzNBPbo3OEod5E3hWjyrQp8z0cKxvIy4T28OcgAPtVqMRSdP99XwDJHC0iH5ZPWmAEp16raLlqHp1B6eTruQqRg0V9zPQOFYfa/uQDCayPa58ysng87AF53ry4+WxAaQXYarEKSgn18rkeWv9tCvLLmiADUPk49HeAd6WSAt3Nrx9dkUeG7KrTolubGgcxKhvjeUWhCsEu5GRBhe1Mh78WCxUclJMhIoVkKkatqKRSmDa4JrAacapdc3ggsD51vtkwIuRe6TbYy6/56EnQN/R2mv4QSVI5Uecu3IQ5wty4mk/0t8khreyFptaUTxtJ+A6r5UMahL6Vb7e9/gcLxFSuhWBiNE9RZHKoEVx6FWvcABDuBlVQK6kyLUFVypgNycL7ZwLqX54PrUDM3RTlUKwP1I11L+tXRu69wPB/aYkJ4jYUThWYSibSt9WorqGfJRWIqAC/AokILJraItu5l16vk9UJ2Ox5ecM793R7UvUzhfwihfUhF7iW5qumcDZeKum4OiRenq6qDl8L3FFSizadVxvQ6UYjmbHn9j76vALmvTjokmF4qNVYyvUxB5X4wOpnOizshOlGwD+F7fvE9BfqH/AnDb4/v3z//BcT+//FPHuij5z+XSD/+Cw==);strokeColor=none;spacingTop=-3;spacingBottom=-3;spacingLeft=-3;spacingRight=-3;points=[];labelBackgroundColor=none;rounded=0;html=1;whiteSpace=wrap;aspect=fixed;" vertex="1" parent="_kVQEKYmX-MvldhjZqGz-34">
          <mxGeometry y="0.47619047619047616" width="35.714285714285715" height="38.57142857142857" as="geometry" />
        </mxCell>
        <mxCell id="_kVQEKYmX-MvldhjZqGz-36" style="vsdxID=57;fillColor=#FFFFFF;gradientColor=none;shape=stencil(nV3bsiW1Df2aee3y/fJMyH9QAcJUCFADJMzfR65zbLnX6lbvkzdyIo3cvsjS0pL3p/jN7z9999sPn4L7/Y8vv/7rh/9+/v6Pnz7Fv30K4fMvP/3w5fMf8l+f4ref4jc//vrlh39++fXPX75/+9+/fTckx3/9+9f/jH/hrze97A7fh1ZwX9/+Eo/w9oe/v8n//PmXXT4dLp/ky9GCKe8byPdoyLejneW9P4KlUI4SzwrPX1DPCu7o2VDwx1m+HbV8QNznI9gzhOPJR7Q+IB/do0JJ9hQ1W+Eff3552xX+XaUeaS6zRx33V1iLtTZPWFI9vEvFJdXnv/X+J18OZ31hP857UuSNLVD80QrKN0shHj6cFeoRvKGQjlJRoRpfUMqRYI3akYw1KvXIHRV6s9aotGN+xFyifoRyXiIRqrhE/chzId/Xo/Qjzu+LS6rV+/FWNzf1HG9wRzT3lKiso+2XTvXnAVe/RjcHHPzh2nnANahbiUvKOMSiUM8rKPI9mOMVP4LjDUfIMN5IEyxSGceb9N+KS+rsCMl+mROq9tORYIFr04WY9suanGVfT9Q03w5XLPPN8ee3I8NyiVTB5ZKNW8/mmwfj/UiGS2x+febXpWAfhrZWc402uiPDZLVwRJis6A+Po5W9Es8DFqlq2xeXAosVxVgD+3FOutqXLYX2ZeMlsC9bKj/YT/j9YTrB3f66Oqb9eBRw2C1NZ6j21zV+Zz8dGe2no8KFIVL4+WmNaDMPRyXm6dfurOfDebAu1xXu1fXPqPmybrBlPh8JfGFcF+i9/XU/TPtV95XaB08hQgW/vixnt8zLNWtaL/pdfqnM62RZF3eCX9+mj9/NZ1z7Pp3evX36+q67Su2vE/r+p+Tmnaj26wHmk58R57WvqEc8x3+i0O35qvqN739KgXeLrA3MV1qR5T7eFmDAcsj6g/2lM+2n5cU3+w3nK62ozLIvh+z/sN/RvlwQaD8fDbdro/UqM5a4M68q0/pa9M24z2BcR70ZDxBZpjbDh8vd0iumFx9WkPg+GoFRaxgYkcLFhARYjxyuZqSeZ0SELmbEgfPKET7wwryD4zuyNt6N4LxEaB6QbTdWiDMyZj8Xu7F0MJ/nbbvbxzBLpAqfxgv7dpg37MPNPRImPo2pgf16RDIPcUM+XRvkuSDxG8mvfc+VA6eqr9tqc7QFpqq4lbVvjj7BVIlUeTKPIaHkXoHtBwgyRCpd3HNwdkceZ5rP+PUlHLhOsinAcYhQxX2a18WzjEeAGS6sB9gnolPwlt0ikWk/UTguIU6FS36kmNY1lxCnKXJIgqEQ0Q9JihkN3GJEveeUVXJHb09JWPtdc1KK+Tx5jpFuouOSHQJnp8yc5Xq4bmUZ78OV/DLZ955bl/wcr+h0jJGdXiqak0KYUld2vIYrQs3OfxulCCN5xHyurKx+/iUfcHZrIi9fK0RJF9lshtMjOrBWIuTAy4lQBTcnuXRG880M0mRu+vkWFYVkXoqigtmv6DQ4brJ+BQfcKaESKQdRikhZkJnsPQ+gnzu8GVXK1s/gHEUnwT0qh7DDaRCpCqdhHFXwD82CpzaPu45TtgCwpF5yHWVvzUecgN2mYERBZR2GJR8P4wvydp6WfLFx4h5RoT2AoPDJycaJs/qt1xQIGh9JsQ2zRvU1HnUUZg0Kh2ginSH2kTCzwKkc6bYRgOwa79GuB1Do8QvXkbyd9LN8ARyD0X8yUKx9kzRPeP+EYN0aYyrPJ6UncESg4NAR9DKRjksFSVNWmvuShUSH1/6EtI72NkdWJCD5aG24CsUeEaTU1hqPBOos/bCLWGGEQ+bllfQS2s5JBShWxt0BixxSEHiKlJ+bcjsnxiaT5DgGHLAVSsmMZ/IEpoLXwHp5s24NydESRcsfx6bgj/pjS6HO6253+OaNHQtfgAyriJSDPFakILyKeUG3a42CWaGJcNv4w5juqImzyjv744KeUr3dK4Qj0a/EcbvdE0T/IuUg1h3RheGpI1VpJX6pZjgSup4yv3QiXC2haelMCwod0qWwARQa8FmwSdiSao1+gzngOrONPUAFGCAUmuARxUK8NwogMMEi9WA+EQoyAm9Y4BCo4ikxc8P5cgSiagR8Z9/x53sKBXzXMpYmJw6+X6QS2nfg4tC+6DgIRUTHs30P6e2oBML3e674jhDcDIVGfRSz+07VLpHCBKUoY2DZrxQKjWKpecBFBz5fVBw4LxHC+pGE6oguiBTeMKUe5gUnKljAEJWAs18OxDYKuk6vFY1lPJulXK+Vkpn4Jyhu03Cz5id+6aycXrkACOJKHtEgm/RJb23FYmzE1GtpaYOC4KyKUEYoJhAOJVKIO/g5oHvruFZenbxaR/i8cKnRR6zLFmeDYKJRwU+JSgIQQ6QS+ClJsbDWJFIR/EQ2Ij2/oQPv0g2yRhptIMCyas0nLKEK+0QSBzpVQQGMuKQenEog0GOkdThZm5Riy5hfXdnPENW9Zn9yTzb7kbH1gAc78GLFh7rkrqOVhZ7ZPhwUkQp4TgNdqpJAZiMmCxgFf1T+oTYzRlRshYsJ8VAq3etKgaW0+uR4Q0RwXI+1r11n2t+KatuGBN8hUiGT/RULvVr6G0ctgP201nWzj1HWXqA07D+VPn0g77UXVdU+lYrDlffiUrGVNA13R6ViGzUVFSoVO3ZgUWd1ZgKdL7qoX3VXWocBJxzwExVg3HkQRe4cA72bKiTKI9/D/ZUUYX+VCDG4jmBe4Y0tLkDrmSDQEZUgCeeJBiI6DYkQiZK0QT7E1dJp2+KogKv1RIIRHSLhRL5uFjlxJ+Egw20EkXDdPJKA/AL0Nw4QludGcIzmg0a6ar4BAj04ULb5tk7ysu+JBSNSkMHsRC3NYDCEJgoYnBVlnChn7Ewyu0h5Ojijnbs2U74NatGsOcN8BQXxX2bYhe3en3/aqHvTWFpL+FX/lDDl3DC7O4IhpegAghAjEhSaluiWgrkhZAUwp965nGFJVZxgR7CdbJII5+GRcSo6SEwKjjZkdJqtqn08ELKTkZRHFFmy7/Wk657LaH/DpDXNxpx6uAhYYGIIIyR2nNf3gYI8nDDQqKtZUokVcdFBozbus8FKAxp1mW7mDuZEGnWBNScgNWZUsIvYElksMrjeI+gFRAqBMs9sqBTp0vIZQjLGloH3/aBQVmSuCsk45wy3PzQkXODzsypzNyIIw72HvIzgcZCPE054dVH93HkvztFD/eUsXOyallMO7/u2NrH9D3fYPMpTBw+MxwGW/bgfgPZDOxRYSnO578Qx6zPlJQReF+fbX5aHvHM6UPh9aBBiA5JemAUtxfV1f5oHYIN7X1IYQzqj4wMtsqobFYvXfhWA7xRy+JBCIV+eAAaj2wUQfnErVm0XMpkHRy5XJy6z3dOj0emtwsX17CD+GlE3JHcSHiQID3wl3nLQfO+rhtDV2MiBKCYe0TSKv7Dvq82y4V0AxsxS0SkYgFX1CBqAYEIy3CK2cXUohZP9QtxO3ykdFSls+fGdAsBQqKgxAjDjGtiC6a9LoRu+SFwVNgm5GfVdKyS4yUZ4ayFcgULoBaLcTaFXWt78U1RwLqjdcJ7CsPgwe5ISMatKQJqDrKrp0ugyWJBFRU5JqFZf1jhKZ78TFu/8TiFUVLCZm9uh3vK8iCho1QBb8zys3fqifknzPHsJfaFmysCdehewxHAqCDpmLbJrZmQRUnaNpVANT7qXbZajfMC5FWXZMn/sKPCJeEwD0oAPTAQzS+pjU+98ZPOROgt9JF70QGdwgSPxokci9YQSIi96XI9UkwHjmQunGzyqoNcD6hL0iG6YG9dYIoJuZRkzMH6JJIIN6W43tUKOWA3zenlM841BJ08gihJXrveqx+Bu5JgPw8U6s4RjhIB7hbIU0aWSlKderZGx2s5g01FEuaAz8lTnTo73qtOIQCHwM88B5sthDKHJ1d2A3YGIfVDGQVhCVLHg7hSRwoIJVrBouOfbZxQrrFL2hXyyKgIX8vZmd4iwpkykGu8UKtLyDW0eRwCvpqKXo3XnoX5EOJvssA2AuxbHaehExxtETJiGTohJZtZqp+J/zvMevhlrPy9ZzmZ8QX3qVDR+QeHpgGBNL1eG3fmEYJO4d9R3PAix9mBx5foDkW1X0R4idH+OINnMrwZcuJ/cH0iC4tg8hLNluczd/WFFuixS6e5+M2wekbLAM09ZZQkTxHu9YjzoKTjgQM21V1QXphAobebePjZrig5VrKOyt6b9rCHuPd9jcIOsDRbhJY6C4NhFKEg9YpUwb5+Uc6Q8LmyTuqhAaoPRXewaz8Fu6SbOMKLjiAr5qcbZYUcMDhxGmwWLnOP9CyZrYZVt9BpZN1xFtnj1Jpo1KGvQJxVmbPFiBicK6anuSDMSeI82uhZrZEZUo0M9WpeMmCYQF3oQN21yLLaBKYS9ZdTUWVS0lqw1NhzsrMHeAQaAy9VuXnch02p0EwcboMdJnhqXSB6Z5O6w8HJRAPBSFOy6dKgKe0zyNGJA3PDd/CqNbETkBvMtUtZDPHsJcilYJBEOhgbz3HQIozQJIfIgvsOdGj11hrag3YdaZqQunmhiUNEfZ4/3JB+wQWW0DljAbUIAoSVrj2/Z55TPT+h2yqhgFYRixToiKdAaNXojozG9OzYqBbetF11ZO7RG2XxCLDnE/RqWJUmh9I8oRKI/tGqe+5GjcxuRVXghC93ZhUdqm+nJblQq2F7Wi1kqS+04f0Jv5mU/SmVQ2XHOEPcQ/Dz989yMZo+fWwwfZqgoU+a1NSgB46GHVWYLD/toPEDwoZ2aqfj1oFCovEanjXpxvdZ09bTjmxLFE82wMe9XphBbkWzvVCJiLOIvu7ENJAbHs4vtYvSBhbKSlojZIlLISxx9Zfj4W6VXVLCZjMxXAlzHA1Ro/qLXOeqbWBrRRzZvvsbXaEOgAg24UwlgXL7YnN0Xo2O7opF3WjVf3ZvTDJRSQvQAh8qb53x0/gRbgfrlLxrUPOWpNeATVM1RDLI/FRCXVDK2fOXGYLuhrSbdc0vBgmWqPjazdcBZc56xA10b264VKr1RUB+gUfkXkV82cgR8IbATNjDyDXz4ymn5J65PsGpzjZ69HAtnjXc0+eN4o/J+dctjwXu8nohPmOirKmu8wQoLx9t3sCDBftkrUtOjNxuZRAFy+ZFM228fJeq7Gmk6nJoR73IyTw/HJUrmB5ZgP+rSPoRWjDdoAI9BPOSFp+lK4zVH8KouFs/2YA8yTOV+6eY1dfEynOjQq4iFmhrH/cYv02FT4QCvTKfYuKe0ZH4wqVJdcofY4pIqsOFLOj9Le/XQGn5+JD56a0pAVOwQn5ZqPPvh6U3KRs0Ahfng+sLC3ibn0D01wqaLzRvbNZbCwyOWjQjZEvyteGUOuCutIyypCLe0SGFYMTrgbPubjmLjCE7vUgqOkzfoyoNTMN9KEneNpWBf+k1rklvpAbmrrdO7CLlSO1HfeITaX2eMtxPxcLy1ZlxYlwrWHX6pYFejdxUtTTXYQt3Ro7k5YSdtd8o00YY7K4SY2eRWRvuIuL4EcjcbQAIkhYvZKLChRyWSZ+Oi3Qxf6OobD07bzSz29q6xFKxy7KWCVe+9UIgPb9jtKlrPxkyga+v7Vs++OONYvRzldCOXbVS+TE8vT+wqShjAHX1xxgeGhLdIp6AtOXhs/sI+Puux8Vd3p4htPfpWwGbfw4TFZmYWu8ZSsHNjUVmRtBJSOt+6+Cxd1EcrjGtvEGJs+/wQWCz0cllT7Er5ONjze/Gc5yMfqFVNfPzSQbZZq3Trx0RNeK0SYXCQoZ6CHnyKOfJ2wb0SqQGvFXrLcxDB7Ihn44hqBxy25u9PLCs4j0y7lpmM9HC4s5ZX3xVspl3L2DkRH98wTNTAuxEttoQF6UuDcYgzHBXu2LiMxngV49m4l4Z8UABoyVvkzoG2nBMifUjmPqdFbieTL1qgEDsU+qGKkVDjfBSzGWFP2t8V0sRP7zCDDQ1QPi/ePzuyoHzeADn4DlloQdIiQFTtWXqNsVyJ5h+c2T1UE/UndbORoPLvn3Szol0jvlcyeOjmqamBfh1gdJgiUKOPHiweelM4Rwv0K1rSmnU0AuXq0S94pCyDgqPftMFOvIsf10Agw1f6tYbCqctGKNgQ2QrnwBfrSboByNIPsFjy9YNtfSVTc4fdJSeZOVZ6slnGKAFLMYPTbFdWsFvyQcEhgvnQ9MO/gvMojx05tkJx+OKv0ojuvhlbx7z5U0VsoZv0HU0gVwoFtXcuoJWPyJ+dtQ1gcCOeVSv8YBfes7z8h/5o14+ff/757Te/9v8ff+RL/vT2A2Hx2/8B);strokeColor=none;spacingTop=-3;spacingBottom=-3;spacingLeft=-3;spacingRight=-3;points=[];labelBackgroundColor=none;rounded=0;html=1;whiteSpace=wrap;" vertex="1" parent="_kVQEKYmX-MvldhjZqGz-34">
          <mxGeometry width="36.67" height="40" as="geometry" />
        </mxCell>
        <mxCell id="_kVQEKYmX-MvldhjZqGz-37" style="vsdxID=58;fillColor=#2d5967;gradientColor=none;shape=stencil(lVNdb4MwDPw1ebUcO188d93/qFY6ojGoKN26f79kSaGJVKS9xZez73IYwbtLdzi3gvAyT+NH++2Pcyf4RRD5oWsnP4eT4L3g3Wmc2vdpvA7HVJ8PkRlPn+NXnHBLfRg7CH9S1SDoP+A1cXs/POVKxEfq23VKc2W6Jg2ac0OGGguxjtCNEqQaYJNZGXIaXCZxQowFrTJphQxtyYcplkr5oKW4lA+OpC3lo+9K//7SRR2fZxQSNEVMmyE5C86ULolBliatBUWlSaXuKktGCI2rMpKAmxmFKUuuctVSpXwwhPUnCra51K8S+s8i1dxwWLf15Ps+Lfvjfb3dAUp/Bu9/AQ==);strokeColor=none;spacingTop=-3;spacingBottom=-3;spacingLeft=-3;spacingRight=-3;points=[];labelBackgroundColor=none;rounded=0;html=1;whiteSpace=wrap;" vertex="1" parent="_kVQEKYmX-MvldhjZqGz-34">
          <mxGeometry x="19.525584415584415" y="21.428571428571427" width="12.382077922077922" height="12.38095238095238" as="geometry" />
        </mxCell>
        <mxCell id="_kVQEKYmX-MvldhjZqGz-38" style="vsdxID=59;fillColor=#2d5967;gradientColor=none;shape=stencil(hVNBcoMwDHyNrxpblm04p+k/Mg0pnlLIENKS3wciO2BPQ2/yaqXVSGuhd5f6cK4EysvQd1/Vrz8OtdBvAtG3ddX7YYqE3gu9O3V99dl31/bI7/NhZs7Rd/czdxi5rgRScxHKGwPy8XpnbuPbFVe+Jn5ce+6qOIlQ6MCOiAFTMDQiQ4oAA3QLEE3zhMJRM6QRyAZWgKwDi1vyRoKlVL8wkMk7AnKpfOkAMZVXUqbiEfhzRQs7NJRgtgZ1FkqTDeqeu4uTGrOsIA7vgChbVAkSs0WpCL26Ez6vEvWJwGZ3QlAmlUcNKlVfGUn/66Rt103BYteTbxp2+zqf23uC+Gvo/R0=);strokeColor=none;spacingTop=-3;spacingBottom=-3;spacingLeft=-3;spacingRight=-3;points=[];labelBackgroundColor=none;rounded=0;html=1;whiteSpace=wrap;" vertex="1" parent="_kVQEKYmX-MvldhjZqGz-34">
          <mxGeometry x="4.286103896103896" y="21.428571428571427" width="12.382077922077922" height="12.38095238095238" as="geometry" />
        </mxCell>
        <mxCell id="_kVQEKYmX-MvldhjZqGz-39" style="vsdxID=60;fillColor=#2d5967;gradientColor=none;shape=stencil(jVNBcsMgDHwNVw0IYcE5Tf6RaZyaqWtniNOmv68JJDHM1O1NrBbtWqyF3py7/akVKM9TGN/bL3+YOqFfBKIfujb4aa6E3gq9OY6hfQvjZTik82kfmbH6GD/jhGu65yQ08RLK7wQoKW/nXWL3fliw781fyK+XkGarPJwhdm8XMsQEpBN0xQRZA+wyK0NGgrGZpRPU8MNoRjQCramTA6rUFQGqUh0NGC7VEbgSl6XyyobK/cwO1JpF1CBdZRFBVRaJHp9+d4hgsNqPAknVgiy4Zk2eGciW8sbkpT6fh8FWz8MNOFXKL3Kk/xGkv2I3F8/EHn3fp8Av+3XCZyj9HXr7Aw==);strokeColor=none;spacingTop=-3;spacingBottom=-3;spacingLeft=-3;spacingRight=-3;points=[];labelBackgroundColor=none;rounded=0;html=1;whiteSpace=wrap;" vertex="1" parent="_kVQEKYmX-MvldhjZqGz-34">
          <mxGeometry x="19.525584415584415" y="5.7142857142857135" width="12.382077922077922" height="12.38095238095238" as="geometry" />
        </mxCell>
        <mxCell id="_kVQEKYmX-MvldhjZqGz-40" style="vsdxID=61;fillColor=#2d5967;gradientColor=none;shape=stencil(nVNBcsMgDHwNVw1IEMfnNP1HpnFqpq6dIU7r/L6mApuoTQ+9iWXR7qzXinaX9nBuFOrLGIa35tMfx1bRk0L0fdsEP86Tor2i3WkIzWsYrv2Rz+dDZMbpffiIGyZ+Z7SOb1Df+FyDNd/AM7M73//B1iX15Rp4s+HLyoKlRE8QQrVlZEJGnAaXoFuCjAU0iUUMEYJNJIk8EC+WZPFCKquvfrJ4YTqL63vlnMGvAS3x5YQE+4dNBCNsVhuojbCJ4PDep3M5kSWjLdQbEdICPZCPW4R8oZXlC0fLN1p9TyS7Qf+pkmTPw9rZk+86rnx5Lzs+Q/x/0P4L);strokeColor=none;spacingTop=-3;spacingBottom=-3;spacingLeft=-3;spacingRight=-3;points=[];labelBackgroundColor=none;rounded=0;html=1;whiteSpace=wrap;" vertex="1" parent="_kVQEKYmX-MvldhjZqGz-34">
          <mxGeometry x="4.286103896103896" y="5.7142857142857135" width="12.382077922077922" height="12.38095238095238" as="geometry" />
        </mxCell>
        <mxCell id="_kVQEKYmX-MvldhjZqGz-41" style="vsdxID=62;fillColor=#2d5967;gradientColor=none;shape=stencil(lZTdbsMgDIWfhlsLcAL4uuveo1LTBS1LqjTrz9uPjFVtoIFx55DPRwdjm+Hm1O6ODZP8NI3DZ3Ox+6ll+MaktH3bjHZyEcMtw81hGJuPcfju9/77uJvJOfoazrPC1efVBHJOkvz2dwBU/x68e7yz/ROuJRha8AZwHTcaOC5wwUGv84LzQLzICwIlcaECXJt1viKgZWn4Oiw1GCwQd7z4v/WCoggJpAoqHhlJvmfltJYlT7dLzFMFPJEQ2SEBOmEovq4hwEQCD9VrWeJGgUiIowrdkOuLkha7D8BLXEUNn5aPByTjPxy/THni6c4U/4Wh9PNG2ynTPoXbLIu74LE4D7br/N59/h8uWnfklzRufwA=);strokeColor=none;spacingTop=-3;spacingBottom=-3;spacingLeft=-3;spacingRight=-3;points=[];labelBackgroundColor=none;rounded=0;html=1;whiteSpace=wrap;" vertex="1" parent="_kVQEKYmX-MvldhjZqGz-34">
          <mxGeometry x="15.23948051948052" y="0.9523809523809523" width="6.191038961038961" height="37.61904761904762" as="geometry" />
        </mxCell>
        <mxCell id="_kVQEKYmX-MvldhjZqGz-42" style="vsdxID=63;fillColor=#2d5967;gradientColor=none;shape=stencil(nZPbDoMgDIafhtsGCipcO/ceJuokc2LQnd5+OrJMZtSwu1K+tj+lJTzt67wrCdJ+sOZc3nUx1IQfCKJu69LqYbQIzwhPK2PLkzXXtnDnLp/IybqY25Th4eIYBxRTFNKn8wgK8u04Or7R7ZyXIJjHYwJsnUcOSeTxDEHFmwVk7AXQdVhCjAFiqP9QBYoH5E5G4SG6Gd1QvuyLTICKkMbv6Fl8bKQAN5rzkfsnvjM2oWO2y4/Gd6Yr3TRuJeb3vzswutz+8OwF);strokeColor=none;spacingTop=-3;spacingBottom=-3;spacingLeft=-3;spacingRight=-3;points=[];labelBackgroundColor=none;rounded=0;html=1;whiteSpace=wrap;" vertex="1" parent="_kVQEKYmX-MvldhjZqGz-34">
          <mxGeometry x="19.04935064935065" y="16.666666666666664" width="16.668181818181818" height="6.19047619047619" as="geometry" />
        </mxCell>
        <mxCell id="_kVQEKYmX-MvldhjZqGz-43" style="vsdxID=64;fillColor=#2d5967;gradientColor=none;shape=stencil(nZPbDoMgDIafhtsGioBcO/ceJuIkc2rUnd5+OmLmIWLcXSnfX/6UlvCozZPaEKRt11RX87RplxN+Ioi2zE1juz4iPCY8yqrGXJrqXqbuXCcDOUS36jFUeDldKEHJQYX07TJCA7Jv5uwEhS2nAgZCzwQKQW/zSgKKGR8qoIH3ARbMBIzSbVwLYDNaIoQeP2OxEQ80aH6gPFfA/O1ZuPd4X/eG9b2UR5qPCnxuVr8bUAi3efo3uzc1h8dsX9AHv6nObFG4pZjeL7egT7kN4vEH);strokeColor=none;spacingTop=-3;spacingBottom=-3;spacingLeft=-3;spacingRight=-3;points=[];labelBackgroundColor=none;rounded=0;html=1;whiteSpace=wrap;" vertex="1" parent="_kVQEKYmX-MvldhjZqGz-34">
          <mxGeometry x="0.47623376623376623" y="16.666666666666664" width="16.668181818181818" height="6.19047619047619" as="geometry" />
        </mxCell>
        <mxCell id="_kVQEKYmX-MvldhjZqGz-44" value="&lt;div style=&quot;font-size: 10px;&quot;&gt;&lt;p style=&quot;margin: 0px; text-indent: 0px; direction: ltr; font-size: 10px;&quot;&gt;&lt;font face=&quot;Helvetica&quot;&gt;&lt;font style=&quot;font-size: 10px; color: rgb(0, 0, 0); direction: ltr; letter-spacing: 0px; line-height: 120%; opacity: 1;&quot;&gt;Internet&lt;/font&gt;&lt;font style=&quot;font-size: 10px; color: rgb(0, 0, 0); direction: ltr; letter-spacing: 0px; line-height: 120%; opacity: 1;&quot;&gt; Gateway&lt;/font&gt;&lt;/font&gt;&lt;font style=&quot;font-size: 10px; color: rgb(0, 0, 0); direction: ltr; letter-spacing: 0px; line-height: 120%; opacity: 1;&quot;&gt;&lt;br style=&quot;font-size: 10px;&quot;&gt;&lt;/font&gt;&lt;/p&gt;&lt;/div&gt;" style="verticalAlign=middle;align=center;vsdxID=66;fillColor=none;gradientColor=none;shape=stencil(nZBLDoAgDERP0z3SIyjew0SURgSD+Lu9kMZoXLhwN9O+tukAlrNpJg1SzDH4QW/URgNYgZTkjA4UkwJUgGXng+6DX1zLfmoymdXo17xh5zmRJ6Q42BWCfc2oJfdAr+Yv+AP9Cb7OJ3H/2JG1HNGz/84klThPVCc=);strokeColor=none;spacingTop=-3;spacingBottom=-3;spacingLeft=-3;spacingRight=-3;points=[];labelBackgroundColor=none;rounded=0;html=1;whiteSpace=wrap;fontFamily=Verdana;fontSize=10;" vertex="1" parent="LouCBtYuXIpQoT6YNALT-223">
          <mxGeometry x="261.26" y="117" width="80" height="36" as="geometry" />
        </mxCell>
        <mxCell id="LouCBtYuXIpQoT6YNALT-330" value="workloads" style="" parent="0" />
        <mxCell id="LouCBtYuXIpQoT6YNALT-333" value="" style="rounded=0;whiteSpace=wrap;html=1;strokeColor=#999999;fillColor=none;fontSize=20;" parent="LouCBtYuXIpQoT6YNALT-330" vertex="1">
          <mxGeometry x="440" y="134.11" width="70" height="104.89" as="geometry" />
        </mxCell>
        <mxCell id="LouCBtYuXIpQoT6YNALT-353" value="FD1" style="text;html=1;resizable=0;autosize=1;align=center;verticalAlign=middle;points=[];fillColor=none;strokeColor=none;rounded=0;dashed=1;fontColor=#999999;fontSize=8;" parent="LouCBtYuXIpQoT6YNALT-330" vertex="1">
          <mxGeometry x="440" y="219" width="30" height="20" as="geometry" />
        </mxCell>
        <mxCell id="LouCBtYuXIpQoT6YNALT-736" value="" style="shape=image;verticalLabelPosition=bottom;verticalAlign=top;imageAspect=0;aspect=fixed;image=data:image/svg+xml,PHN2ZyB4bWxucz0iaHR0cDovL3d3dy53My5vcmcvMjAwMC9zdmciIHhtbG5zOnhsaW5rPSJodHRwOi8vd3d3LnczLm9yZy8xOTk5L3hsaW5rIiB2ZXJzaW9uPSIxLjEiIGlkPSJGYXN0X0Nvbm5lY3QiIHg9IjBweCIgeT0iMHB4IiB2aWV3Qm94PSIwIDAgMTYxLjkgMTYyIiBlbmFibGUtYmFja2dyb3VuZD0ibmV3IDAgMCAxNjEuOSAxNjIiIHhtbDpzcGFjZT0icHJlc2VydmUiPiYjeGE7PHBhdGggZmlsbD0iIzMxMkQyQSIgZD0iTTc2LjcsODguOGg0MS41djExLjdINzUuNmMtMSwyLjktMi41LDUuNy00LjQsOGg0N3YxMS4yaC00MWMwLjIsMC4xLDAuMywwLjMsMC41LDAuNCAgYzIuMywyLjIsNC4zLDQuNyw1LjksNy42YzAuMSwwLjIsMC4yLDAuMywwLjMsMC40aDM0LjN2MTEuMkg4Ny42YzAuMiwxLjQsMC4zLDIuOCwwLjMsNC4zdjMuN2gzOC4zdi0xOS4ydi04LjR2LTExLjJ2LThWODAuOEg3NC4xICBDNzUuNCw4My4yLDc2LjMsODUuOSw3Ni43LDg4Ljh6IE05Myw3My40aDYuN3Y0LjRIOTNWNzMuNHogTTkzLDY1LjZoNi43VjcwSDkzVjY1LjZ6IE0xMTIuOSwxMzMuOWMwLTEuMy0xLjEtMi40LTIuNC0yLjQgIHMtMi40LDEuMS0yLjQsMi40YzAsMS4zLDEuMSwyLjQsMi40LDIuNFMxMTIuOSwxMzUuMywxMTIuOSwxMzMuOXogTTExMi45LDExNC4zYzAtMS4zLTEuMS0yLjQtMi40LTIuNHMtMi40LDEuMS0yLjQsMi40ICBzMS4xLDIuNCwyLjQsMi40UzExMi45LDExNS42LDExMi45LDExNC4zeiBNMTEyLjksOTVjMC0xLjMtMS4xLTIuNC0yLjQtMi40cy0yLjQsMS4xLTIuNCwyLjRzMS4xLDIuNCwyLjQsMi40UzExMi45LDk2LjMsMTEyLjksOTV6ICAgTTExNCw0OUw5Ni41LDI1LjdMNzkuNCw0OUg5M3Y1LjRoNi43VjQ5SDExNHogTTkwLjksNDMuMmw1LjYtNy42bDUuNyw3LjZIOTAuOXogTTE0MC4yLDQ0LjVjLTEsMTQuMi0xMi42LDE4LTE4LjYsMThIOTkuN3YtOGgyMS44ICBjMS42LDAsOS45LTAuNiwxMC42LTEwLjVjMC4xLTEuNy0wLjEtOS45LTExLjQtMTAuOEwxMTgsMzNsLTAuOC0yLjZjLTAuNC0xLjUtMy40LTguNy0xMi44LTYuM2wtMi43LDAuN2wtMS42LTIuMyAgYy0wLjItMC4yLTUtNi44LTEzLjUtNC4zbC0wLjQsMC4xYy0wLjEsMC01LDEuMi03LDguM2wtMC44LDIuN2wtMi44LDAuMmMtMSwwLjEtMTAuMSwxLjItMTIsMTEuOGMwLDAuNi0wLjQsNS43LDIuNiw5LjMgIGMxLjksMi4yLDQuOSwzLjYsOSwzLjlIOTN2OEg3NC44QzY4LjMsNjIsNjMuNCw1OS43LDYwLDU1LjZjLTUuMy02LjUtNC4zLTE1LTQuMy0xNS40VjQwYzIuMS0xMS44LDEwLjctMTYuNywxNi43LTE4LjEgIEM3NS45LDEzLDgzLDEwLjgsODQuNSwxMC42YzkuNC0yLjgsMTYuNywxLjUsMjAuNSw1LjNjMTAuMy0xLjYsMTYuMyw0LjUsMTguOSw5LjZDMTM3LjUsMjcuNywxNDAuNSwzOC43LDE0MC4yLDQ0LjV6IE00NC40LDExMS40ICBjMi4zLDAuOSw0LjgsMS40LDcuMywxLjRjMi42LDAsNS4xLTAuNSw3LjMtMS40YzEuMy0wLjUsMi41LTEuMSwzLjctMS44YzEuNS0wLjksMi44LTIsNC0zLjNjMS42LTEuNywzLTMuNywzLjktNS45ICBjMS4yLTIuNiwxLjgtNS41LDEuOC04LjVjMC0xLjEtMC4xLTIuMS0wLjMtMy4yYy0wLjQtMi45LTEuNS01LjYtMy04Yy0zLjctNS44LTEwLjItOS42LTE3LjUtOS42Yy0xMS41LDAtMjAuOCw5LjMtMjAuOCwyMC44ICBDMzAuOSwxMDAuOCwzNi41LDEwOC40LDQ0LjQsMTExLjR6IE01MS43LDgwLjFjNi41LDAsMTEuOCw1LjMsMTEuOCwxMS44cy01LjMsMTEuOC0xMS44LDExLjhzLTExLjgtNS4zLTExLjgtMTEuOCAgUzQ1LjIsODAuMSw1MS43LDgwLjF6IE03OC40LDEyOC4xYy0wLjEtMC4yLTAuMi0wLjMtMC40LTAuNGMtMi4zLTIuOC01LjEtNS4zLTguMi03LjFjLTIuMi0xLjMtNC42LTIuMy03LjEtMyAgYy0xLjQtMC40LTIuOC0wLjctNC4yLTAuOWMtMS4zLTAuMi0yLjYtMC4zLTMuOS0wLjNoLTUuOGMtMS4zLDAtMi43LDAuMS0zLjksMC4zYy0xNC43LDEuOS0yNiwxNC41LTI2LDI5Ljd2NC43djEuMmg5di0xLjJ2LTQuNyAgYzAtMTEuNiw5LjQtMjEsMjEtMjFoNS44YzExLjYsMCwyMSw5LjQsMjEsMjF2NC43djEuMmg5di0xLjJ2LTMuN3YtMWMwLTIuNC0wLjMtNC44LTAuOC03QzgyLjcsMTM1LjIsODAuOSwxMzEuNCw3OC40LDEyOC4xeiIvPiYjeGE7PC9zdmc+" parent="LouCBtYuXIpQoT6YNALT-330" vertex="1">
          <mxGeometry x="130" y="152.56000000000003" width="68" height="68" as="geometry" />
        </mxCell>
        <mxCell id="LouCBtYuXIpQoT6YNALT-737" style="edgeStyle=none;rounded=0;orthogonalLoop=1;jettySize=auto;html=1;startArrow=none;startFill=0;endArrow=none;endFill=0;fontSize=10;fontColor=#FF3333;fillColor=#0050ef;strokeColor=#001DBC;strokeWidth=4;exitX=0;exitY=0.5;exitDx=0;exitDy=0;" parent="LouCBtYuXIpQoT6YNALT-330" edge="1">
          <mxGeometry relative="1" as="geometry">
            <mxPoint x="280.5" y="188.20000000000005" as="sourcePoint" />
            <mxPoint x="200" y="188" as="targetPoint" />
          </mxGeometry>
        </mxCell>
        <mxCell id="_kVQEKYmX-MvldhjZqGz-0" value="" style="group;aspect=fixed;" vertex="1" connectable="0" parent="LouCBtYuXIpQoT6YNALT-330">
          <mxGeometry x="450" y="129" width="50" height="90" as="geometry" />
        </mxCell>
        <mxCell id="_kVQEKYmX-MvldhjZqGz-1" style="vsdxID=53;fillColor=none;gradientColor=none;strokeColor=none;spacingTop=-3;spacingBottom=-3;spacingLeft=-3;spacingRight=-3;points=[];labelBackgroundColor=none;rounded=0;html=1;whiteSpace=wrap;" vertex="1" parent="_kVQEKYmX-MvldhjZqGz-0">
          <mxGeometry y="10" width="50" height="48.15" as="geometry" />
        </mxCell>
        <mxCell id="_kVQEKYmX-MvldhjZqGz-2" style="vsdxID=54;fillColor=none;gradientColor=none;strokeColor=none;spacingTop=-3;spacingBottom=-3;spacingLeft=-3;spacingRight=-3;points=[];labelBackgroundColor=none;rounded=0;html=1;whiteSpace=wrap;" vertex="1" parent="_kVQEKYmX-MvldhjZqGz-1">
          <mxGeometry width="50" height="48.15" as="geometry" />
        </mxCell>
        <mxCell id="_kVQEKYmX-MvldhjZqGz-3" style="vsdxID=55;fillColor=#FFFFFF;gradientColor=none;shape=stencil(lZPRDoIwDEW/Zq9LWUHCs+J/EAVZRCATFP/eYYdsAzW+td2922mzMtxey6zNmYBrp5pzfpfHrmS4Y0LIusyV7HTEMGW4LRqVn1TT10fK22xUjtGluY03DOSLOEajScCDCknC482rsif9oVdkCEggeIjGEfgWGASVwChMmsQchVGgqzBpEvLQfrWStUUJDuKb+QMhuHgz8ERnteDyTnDWVBzcVTiNvnFnCN/o9Cyi2CUEFy8Ab3xWB+hLfOJVxFnuI3+AnA1L6kEsG/HJB1zOxkNfBf39Hf/V62D++4WsKlod+9zfFV2iPcP0CQ==);strokeColor=none;spacingTop=-3;spacingBottom=-3;spacingLeft=-3;spacingRight=-3;points=[];labelBackgroundColor=none;rounded=0;html=1;whiteSpace=wrap;" vertex="1" parent="_kVQEKYmX-MvldhjZqGz-2">
          <mxGeometry x="0.5952380952380952" y="0.5732142857142856" width="48.80952380952382" height="47.00357142857142" as="geometry" />
        </mxCell>
        <mxCell id="_kVQEKYmX-MvldhjZqGz-4" style="vsdxID=56;fillColor=#FFFFFF;gradientColor=none;shape=stencil(lZXRdoIwDIafprc9aUMpvXb6Hp6JgzMmHsSNvf1gLbQNCHpX4h/88iehDHe34njNmYRb29Sf+U95aguGb0zK8lLkTdn2J4Z7hrtz3eQfTX2/nOzz9Tgoh9NX/T28obN5BjmqIUvCr41Ijtl/4GD17/fGJgiXoXhiXIYgKdBJJ9IcR5ELJVy6SIdzkQulPMHwz6vyEsIGCRN+JlZpgxRfgFEEN6jJV5ClhDfwCqlqEbgvR8S8VE95e5c0wdU8lTFu77cmtIprEdMGIs+v9GPYIGG5GZQ1SBCzHstZPXI2LDhzCZdnkIzB5sy+qt/aCXihxbBuWaZiyyD2C6hZdAghdmp9YSAi21wWYHTyREInb+J3EQHANro5Sh41R8U7TeQLGy2Ih56BQgXbPJWCVPPcenj9c9thDNcp/U5O3Ry5Um5EjErsXPjorLu5Nrr9wV8E57Kq7D0S/k4vjj5kLx3c/wE=);strokeColor=none;spacingTop=-3;spacingBottom=-3;spacingLeft=-3;spacingRight=-3;points=[];labelBackgroundColor=none;rounded=0;html=1;whiteSpace=wrap;" vertex="1" parent="_kVQEKYmX-MvldhjZqGz-2">
          <mxGeometry width="50" height="48.15" as="geometry" />
        </mxCell>
        <mxCell id="_kVQEKYmX-MvldhjZqGz-5" style="vsdxID=57;fillColor=none;gradientColor=none;strokeColor=none;spacingTop=-3;spacingBottom=-3;spacingLeft=-3;spacingRight=-3;points=[];labelBackgroundColor=none;rounded=0;html=1;whiteSpace=wrap;" vertex="1" parent="_kVQEKYmX-MvldhjZqGz-1">
          <mxGeometry x="1.1904761904761905" y="1.1464285714285711" width="47.61904761904762" height="45.85714285714285" as="geometry" />
        </mxCell>
        <mxCell id="_kVQEKYmX-MvldhjZqGz-6" style="vsdxID=58;fillColor=#2d5967;gradientColor=none;shape=stencil(lZXLcoMwDEW/xlvGWDzidZr8R6YhhSmFDCEt+ftCbbAkB+Lu/LgyR/IVFrC/ladrIZS89V37WfxU574U8CaUqpqy6Kp+HAk4CNhf2q746Np7czbz62lSTqOv9ns6YTBxOo3SeIpS8mFW5N/saMR11SBxEqlkXft+78zJsdmMI62tOsZyOSgyfdipsrtAd2H5drpOJgmWzra4JIXSO0qFsOcVKSkaqgNQyVO4scZ5RgCZnBPqXSRjSukYONRMueQBXAAOY6OETv+84B6kno9bIBVF1LnLm175AL774KX9XniVGTtzNVzJ38so88puneRSSr2UxihbqK20nCqsszw9hwWvuzCImkV5wmkpKlKE2QQFhPkEBdiVhEPyhoPFWesdB5uUfstxfcDlIwx01+z6EwqKFUF/rgCf/jtgHLj//aWqa/Nc4H3+PoxL5m2Bwy8=);strokeColor=none;spacingTop=-3;spacingBottom=-3;spacingLeft=-3;spacingRight=-3;points=[];labelBackgroundColor=none;rounded=0;html=1;whiteSpace=wrap;" vertex="1" parent="_kVQEKYmX-MvldhjZqGz-5">
          <mxGeometry width="47.61904761904762" height="45.85714285714285" as="geometry" />
        </mxCell>
        <mxCell id="_kVQEKYmX-MvldhjZqGz-7" style="vsdxID=59;fillColor=#2d5967;gradientColor=none;shape=stencil(pZJbDsIgFERXwy+hQBW/a91Hk1IhIjQUX7sXcmNsNaWx/s1wz32EDGLVoJpeIkqG4N1J3nQbFGJ7RKm2SnodokKsRqzqnJdH7y62Bd83iUzq7K5pwh36SOqg5AGuIOAPgBptR+iruArOoCvB7PosOv0BjkUxpTdYlPOjdxyXf/GCY7qd57/u+ZVfuGeZj+Idl04bA2kb1z/jFZ8gmqx+Ag==);strokeColor=none;spacingTop=-3;spacingBottom=-3;spacingLeft=-3;spacingRight=-3;points=[];labelBackgroundColor=none;rounded=0;html=1;whiteSpace=wrap;" vertex="1" parent="_kVQEKYmX-MvldhjZqGz-5">
          <mxGeometry x="6.547619047619048" y="29.233928571428564" width="34.523809523809526" height="9.744642857142855" as="geometry" />
        </mxCell>
        <mxCell id="_kVQEKYmX-MvldhjZqGz-8" style="vsdxID=60;fillColor=#2d5967;gradientColor=none;shape=stencil(jVLRDoMgDPwaXg2UOeezc/9hJk4ypwZ107+fpCRClxnf2nLH9eCYzIa66BUDPoyme6qPLseaySsD0G2tjB7XismcyazqjHqYbmpL7PvCIm316t72hhl5MbcU4Au2gmN/Q+x9MggWeJwk0Vk4gggZfAYyWGAjgcNIinGDUxql6Z7yxnADgEheQmV/OzfioW5MZHfNWoUkFCVWiVF/JRkijtokJv2ng9+t6Iv/s0l+tdHt4QSsxRadSjcNJs8/p1FbRxhTmX8B);strokeColor=none;spacingTop=-3;spacingBottom=-3;spacingLeft=-3;spacingRight=-3;points=[];labelBackgroundColor=none;rounded=0;html=1;whiteSpace=wrap;" vertex="1" parent="_kVQEKYmX-MvldhjZqGz-5">
          <mxGeometry x="33.92857142857143" y="33.24642857142857" width="2.380952380952381" height="2.2928571428571423" as="geometry" />
        </mxCell>
        <mxCell id="_kVQEKYmX-MvldhjZqGz-9" style="vsdxID=61;fillColor=#2d5967;gradientColor=none;shape=stencil(pZLbDsIgEES/Zl8JZW3E51r/o0mpEBEa2nr5e0Fi2qrpRd92Z8+QCRnArJFFLYDRpnX2JK6qbCXgHhhTRgqnWj8B5oBZZZ04OtuZMu51Ecgwne0lvHCLvh0nnAcXo/eo0Od2iLBWZgDT38CETqCv4yJ4VdoZePwPHEmyGcFBSSdyp2SL/xl65avhM9Jqw0ykBQY/9NWplNaxecP7e9W8FGuK+QM=);strokeColor=none;spacingTop=-3;spacingBottom=-3;spacingLeft=-3;spacingRight=-3;points=[];labelBackgroundColor=none;rounded=0;html=1;whiteSpace=wrap;" vertex="1" parent="_kVQEKYmX-MvldhjZqGz-5">
          <mxGeometry x="6.547619047619048" y="6.305357142857143" width="10.11904761904762" height="9.744642857142855" as="geometry" />
        </mxCell>
        <mxCell id="_kVQEKYmX-MvldhjZqGz-10" style="vsdxID=62;fillColor=#2d5967;gradientColor=none;shape=stencil(pZJJDoMwDEVP422UxGXYU3oPJEKJmhIUoMPtm8iqCnSE7vzj920r+oBZVxetAsm73tmDOuuyrwG3IKVuauV07yvAHDCrrFN7Z4emJN0WgQzV0Z7ChAv5BOfBI/mVNKkdoUY3I3QleN/wEp2vXwSvRac/kG6YTCZwikxEH2bHLI3/M4iIJfje8HzSYsOXk34w+OIRmkobQ5kb9+ch808UUMxv);strokeColor=none;spacingTop=-3;spacingBottom=-3;spacingLeft=-3;spacingRight=-3;points=[];labelBackgroundColor=none;rounded=0;html=1;whiteSpace=wrap;" vertex="1" parent="_kVQEKYmX-MvldhjZqGz-5">
          <mxGeometry x="18.452380952380956" y="6.305357142857143" width="10.11904761904762" height="9.744642857142855" as="geometry" />
        </mxCell>
        <mxCell id="_kVQEKYmX-MvldhjZqGz-11" style="vsdxID=63;fillColor=#2d5967;gradientColor=none;shape=stencil(pZLbDsIgEES/Zl8JZW3E51r/o0mpEBEa2nr5e0Fi2qrpRd92Z8+QCRnArJFFLYDRpnX2JK6qbCXgHhhTRgqnWj8B5oBZZZ04OtuZMu51Ecgwne0lvHCLvh0nnAcXo/eo0Od2iLBWZgDT38CETqCv4yJ4VdoZePwPHEmyGcFBSSdyp2SL/xl65avhM9Jqw0ykBQY/9NWplNaxecP7e9W8FGuK+QM=);strokeColor=none;spacingTop=-3;spacingBottom=-3;spacingLeft=-3;spacingRight=-3;points=[];labelBackgroundColor=none;rounded=0;html=1;whiteSpace=wrap;" vertex="1" parent="_kVQEKYmX-MvldhjZqGz-5">
          <mxGeometry x="6.547619047619048" y="17.769642857142856" width="10.11904761904762" height="9.744642857142855" as="geometry" />
        </mxCell>
        <mxCell id="_kVQEKYmX-MvldhjZqGz-12" style="vsdxID=64;fillColor=#2d5967;gradientColor=none;shape=stencil(pZJJDoMwDEVP422UxGXYU3oPJEKJmhIUoMPtm8iqCnSE7vzj920r+oBZVxetAsm73tmDOuuyrwG3IKVuauV07yvAHDCrrFN7Z4emJN0WgQzV0Z7ChAv5BOfBI/mVNKkdoUY3I3QleN/wEp2vXwSvRac/kG6YTCZwikxEH2bHLI3/M4iIJfje8HzSYsOXk34w+OIRmkobQ5kb9+ch808UUMxv);strokeColor=none;spacingTop=-3;spacingBottom=-3;spacingLeft=-3;spacingRight=-3;points=[];labelBackgroundColor=none;rounded=0;html=1;whiteSpace=wrap;" vertex="1" parent="_kVQEKYmX-MvldhjZqGz-5">
          <mxGeometry x="18.452380952380956" y="17.769642857142856" width="10.11904761904762" height="9.744642857142855" as="geometry" />
        </mxCell>
        <mxCell id="_kVQEKYmX-MvldhjZqGz-13" style="vsdxID=65;fillColor=#2d5967;gradientColor=none;shape=stencil(pZJJDoMwDEVP422UxGXYU3oPJEKJmhIUoMPtm8iqCnSE7vzj920r+oBZVxetAsm73tmDOuuyrwG3IKVuauV07yvAHDCrrFN7Z4emJN0WgQzV0Z7ChAv5BOfBI/mVNKkdoUY3I3QleN/wEp2vXwSvRac/kG6YTCZwikxEH2bHLI3/M4iIJfje8HzSYsOXk34w+OIRmkobQ5kb9+ch808UUMxv);strokeColor=none;spacingTop=-3;spacingBottom=-3;spacingLeft=-3;spacingRight=-3;points=[];labelBackgroundColor=none;rounded=0;html=1;whiteSpace=wrap;" vertex="1" parent="_kVQEKYmX-MvldhjZqGz-5">
          <mxGeometry x="30.357142857142858" y="6.305357142857143" width="10.11904761904762" height="9.744642857142855" as="geometry" />
        </mxCell>
        <mxCell id="_kVQEKYmX-MvldhjZqGz-14" style="vsdxID=66;fillColor=#2d5967;gradientColor=none;shape=stencil(pZJJDoMwDEVP422UxGXYU3oPJEKJmhIUoMPtm8iqCnSE7vzj920r+oBZVxetAsm73tmDOuuyrwG3IKVuauV07yvAHDCrrFN7Z4emJN0WgQzV0Z7ChAv5BOfBI/mVNKkdoUY3I3QleN/wEp2vXwSvRac/kG6YTCZwikxEH2bHLI3/M4iIJfje8HzSYsOXk34w+OIRmkobQ5kb9+ch808UUMxv);strokeColor=none;spacingTop=-3;spacingBottom=-3;spacingLeft=-3;spacingRight=-3;points=[];labelBackgroundColor=none;rounded=0;html=1;whiteSpace=wrap;" vertex="1" parent="_kVQEKYmX-MvldhjZqGz-5">
          <mxGeometry x="30.357142857142858" y="17.769642857142856" width="10.11904761904762" height="9.744642857142855" as="geometry" />
        </mxCell>
        <mxCell id="_kVQEKYmX-MvldhjZqGz-15" value="&lt;div style=&quot;font-size: 10px;&quot;&gt;&lt;p style=&quot;align:center;margin-left:0;margin-right:0;margin-top:0px;margin-bottom:0px;text-indent:0;valign:middle;direction:ltr;&quot;&gt;&lt;font style=&quot;font-size: 10px; color: rgb(0, 0, 0); direction: ltr; letter-spacing: 0px; line-height: 120%; opacity: 1;&quot;&gt;Virtual&lt;br&gt;&lt;/font&gt;&lt;/p&gt;&lt;p style=&quot;align:center;margin-left:0;margin-right:0;margin-top:0px;margin-bottom:0px;text-indent:0;valign:middle;direction:ltr;&quot;&gt;&lt;font style=&quot;font-size: 10px; color: rgb(0, 0, 0); direction: ltr; letter-spacing: 0px; line-height: 120%; opacity: 1;&quot;&gt;Macine&lt;/font&gt;&lt;/p&gt;&lt;/div&gt;" style="verticalAlign=middle;align=center;vsdxID=68;fillColor=none;gradientColor=none;shape=stencil(nZBLDoAgDERP0z3SIyjew0SURgSD+Lu9kMZoXLhwN9O+tukAlrNpJg1SzDH4QW/URgNYgZTkjA4UkwJUgGXng+6DX1zLfmoymdXo17xh5zmRJ6Q42BWCfc2oJfdAr+Yv+AP9Cb7OJ3H/2JG1HNGz/84klThPVCc=);strokeColor=none;spacingTop=-3;spacingBottom=-3;spacingLeft=-3;spacingRight=-3;points=[];labelBackgroundColor=none;rounded=0;html=1;whiteSpace=wrap;" vertex="1" parent="_kVQEKYmX-MvldhjZqGz-0">
          <mxGeometry x="2.380952380952381" y="61.61538461538462" width="45.23809523809524" height="28.384615384615387" as="geometry" />
        </mxCell>
        <mxCell id="_kVQEKYmX-MvldhjZqGz-57" value="" style="group;aspect=fixed;" vertex="1" connectable="0" parent="LouCBtYuXIpQoT6YNALT-330">
          <mxGeometry x="790" y="140.45" width="51.71" height="67.1" as="geometry" />
        </mxCell>
        <mxCell id="_kVQEKYmX-MvldhjZqGz-58" style="vsdxID=84;fillColor=none;gradientColor=none;strokeColor=none;spacingTop=-3;spacingBottom=-3;spacingLeft=-3;spacingRight=-3;points=[];labelBackgroundColor=none;rounded=0;html=1;whiteSpace=wrap;" vertex="1" parent="_kVQEKYmX-MvldhjZqGz-57">
          <mxGeometry width="51.71" height="51.710091743119264" as="geometry" />
        </mxCell>
        <mxCell id="_kVQEKYmX-MvldhjZqGz-59" style="vsdxID=85;fillColor=none;gradientColor=none;strokeColor=none;spacingTop=-3;spacingBottom=-3;spacingLeft=-3;spacingRight=-3;points=[];labelBackgroundColor=none;rounded=0;html=1;whiteSpace=wrap;" vertex="1" parent="_kVQEKYmX-MvldhjZqGz-58">
          <mxGeometry width="51.71" height="51.710091743119264" as="geometry" />
        </mxCell>
        <mxCell id="_kVQEKYmX-MvldhjZqGz-60" style="vsdxID=86;fillColor=#FFFFFF;gradientColor=none;shape=stencil(lZPRDoIwDEW/Zq9LWUHCs+J/EAVZRCATFP/eYYdsAzW+td2922mzMtxey6zNmYBrp5pzfpfHrmS4Y0LIusyV7HTEMGW4LRqVn1TT10fK22xUjtGluY03DOSLOEajScCDCknC482rsif9oVdkCEggeIjGEfgWGASVwChMmsQchVGgqzBpEvLQfrWStUUJDuKb+QMhuHgz8ERnteDyTnDWVBzcVTiNvnFnCN/o9Cyi2CUEFy8Ab3xWB+hLfOJVxFnuI3+AnA1L6kEsG/HJB1zOxkNfBf39Hf/V62D++4WsKlod+9zfFV2iPcP0CQ==);strokeColor=none;spacingTop=-3;spacingBottom=-3;spacingLeft=-3;spacingRight=-3;points=[];labelBackgroundColor=none;rounded=0;html=1;whiteSpace=wrap;" vertex="1" parent="_kVQEKYmX-MvldhjZqGz-59">
          <mxGeometry x="0.6155952380952382" y="0.6155963302752294" width="50.47880952380953" height="50.47889908256881" as="geometry" />
        </mxCell>
        <mxCell id="_kVQEKYmX-MvldhjZqGz-61" style="vsdxID=87;fillColor=#FFFFFF;gradientColor=none;shape=stencil(lZXdcsIgEIWfhltmYfPHtdX3cGpsMk2NE7WNb19SUGCxJLmL61k9fGc3MNxcmv25ZhIu16H/rH/aw7Vh+MakbE9NPbRX/cRwy3Bz7If6Y+hvp4P5fN5Pyunpq/+efmE0fQo55lOXhLupSI7VX2Fn9O+3wTQI25HzTNkOQVpglFZUcnyIbCnj0lZGjEW2VPAM/T/v2pNv1mswFSG4WqOXyPNyTYPmU4kkDq/FEVI54eFBc4iqggDxwkCqemlY8xKhX6qnfnUMFbFb8kKGdl2gd3eAUoRuPZHzn6LrNSxKI9Kn047kdJgoCq9BRDMqI1wRmxGjECia11M2u3Nr9XM7DSsmCNLIqjxEBiEvoLDojENIKr3wwJbHH2pnRisUzy45hGfWGyMyujFPMLYiANjMmDwk/6Wek5cdJLOZXJFwnAdqynsLPY+CVLNsrZ1+EXoqT6dK1XM7rRQvixCCN4OPQxdciZADyerFmzgdVWrh9IO7fo9t15nb2/+eXte6ZK563P4C);strokeColor=none;spacingTop=-3;spacingBottom=-3;spacingLeft=-3;spacingRight=-3;points=[];labelBackgroundColor=none;rounded=0;html=1;whiteSpace=wrap;" vertex="1" parent="_kVQEKYmX-MvldhjZqGz-59">
          <mxGeometry width="51.71" height="51.710091743119264" as="geometry" />
        </mxCell>
        <mxCell id="_kVQEKYmX-MvldhjZqGz-62" style="vsdxID=88;fillColor=none;gradientColor=none;strokeColor=none;spacingTop=-3;spacingBottom=-3;spacingLeft=-3;spacingRight=-3;points=[];labelBackgroundColor=none;rounded=0;html=1;whiteSpace=wrap;" vertex="1" parent="_kVQEKYmX-MvldhjZqGz-58">
          <mxGeometry x="1.2311904761904764" y="1.2311926605504588" width="49.247619047619054" height="49.247706422018354" as="geometry" />
        </mxCell>
        <mxCell id="_kVQEKYmX-MvldhjZqGz-63" style="vsdxID=89;fillColor=#2d5967;gradientColor=none;shape=stencil(lZPdDoMgDIWfhluCFMF7597DRJxkTgxzf28/GTFTiYh3Lf3OSSkUQX5vyl4iSu6D0Vf5UtXQIDghSlXXSKOGMUJQIMhrbeTF6EdXubwvLWmjm35ah7fTCYY5typKPu4kIeSXnx3eqm6GT8UJTgOsbx2AaYoBYuH4Hnzb4PUOTmMXX84axLoZmuAs2/bn7AgtPHuWYcai7QXHKd+m/e53BHRpH3qmw5OJEIzB/9PXqm3dzszr6yUZj9yCQfEF);strokeColor=none;spacingTop=-3;spacingBottom=-3;spacingLeft=-3;spacingRight=-3;points=[];labelBackgroundColor=none;rounded=0;html=1;whiteSpace=wrap;" vertex="1" parent="_kVQEKYmX-MvldhjZqGz-62">
          <mxGeometry x="25.239404761904765" y="25.239449541284404" width="9.233928571428573" height="7.387155963302752" as="geometry" />
        </mxCell>
        <mxCell id="_kVQEKYmX-MvldhjZqGz-64" style="vsdxID=90;fillColor=#2d5967;gradientColor=none;shape=stencil(jVRdc4MgEPw1vDLAyUee0+R/ZBpTndqYMabVf18dMHAQDW9wLuztuhyB/b063Uoi2L3v2u/yrz73FYEPIkR9rcqu7qcVgQOB/aXtyq+ufVzPdn87zch59dP+zjcM9hybTwg22p2026NFfj46C+UY67baUC5saRC2JDg12qFciTN3bADEwUbAgBVSVVCmMLG/0nFoRaXCtDtJgWNiI+muwNymoKC32OdrRCRbYvJnNwu1ElRiZg+BHJ89nHtbTSR5Mh8w7xufNykF0KLApJHHkciwJcCIlxqb+pqZOpxPiaG+z/y4BNo2AgM+HYugEJX148IDriQVFVFgdOC1SLpeyJWhS9LGpJQvXqfig5bG1I+1+HjICnlg4Jj68ZwQWeJDVJbzL/IL09uOHk3YYtrPmvIkczjL7xI6LfzwvdRNY2d3+D0e1lPJDno4/AM=);strokeColor=none;spacingTop=-3;spacingBottom=-3;spacingLeft=-3;spacingRight=-3;points=[];labelBackgroundColor=none;rounded=0;html=1;whiteSpace=wrap;" vertex="1" parent="_kVQEKYmX-MvldhjZqGz-62">
          <mxGeometry x="20.31464285714286" y="34.47339449541285" width="7.387142857142859" height="7.387155963302752" as="geometry" />
        </mxCell>
        <mxCell id="_kVQEKYmX-MvldhjZqGz-65" style="vsdxID=91;fillColor=#2d5967;gradientColor=none;shape=stencil(lZLdDsIgDIWfprcE6X7c9ZzvsWTMEREWhn9vL6QxosnmdtfD+U5T0gLW09COEgSfvLNneVedHwAPIIQyg3TKhwqwAax76+TJ2avpSI9tJGN1sbfY4UG5nMeI4E+SpI5EamUS8hvc8QX0ba6C10+wRC7+KstZXs33LQoWvSRQlqzK5gOIrNxvCWyb5x8dis86e6U1XUPq/64/PNHpYPMC);strokeColor=none;spacingTop=-3;spacingBottom=-3;spacingLeft=-3;spacingRight=-3;points=[];labelBackgroundColor=none;rounded=0;html=1;whiteSpace=wrap;" vertex="1" parent="_kVQEKYmX-MvldhjZqGz-62">
          <mxGeometry x="14.774285714285718" y="24.008256880733946" width="8.618333333333334" height="8.002752293577982" as="geometry" />
        </mxCell>
        <mxCell id="_kVQEKYmX-MvldhjZqGz-66" style="vsdxID=92;fillColor=#2d5967;gradientColor=none;shape=stencil(pVfbcpswEP0aXnekXYGk5zT9j0zj1ExdO0OcNvn7iIJgtQIE0ze8PkdntVeo6OHt/PR6qlC93bvbr9Pf9vl+ruhbhdhez6euvYenih4reni5daef3e39+jz8fn3qkf3T79uf/oSPgad6BqrP4Rda8Paf5fsAvrRXBtYIziQErdQ63IXTDsDjnzudCafX9f8RtAVHnPDjvRuCo3PKaNIEzXipDxxRNXg/ojDeBXRE0YgiQDuiogmU2ZK3bj54NJnJoahuCXSdqjPQqGQ1eJeKG3B+U1xDnYmPlFlcgUMpPoFGpcZDU2+Lp5nihMEy3XHFWc6IiQKRpiaEW6RJCUebOZTEEYteUg0KEy/VlotEoGzqokodpBBxEcz5EpRjaDk2wktG2Jd49FALR/PE97VbTDw2YJpjVRdubItVpx2gyGQzWaK4Dl0pkunAbvZbmG9GVhECijriUzCaLGgS8gxFk9vaHZmuhYF2aFwWwOlW4LNqsHgDdqPKQgD8EXx6eGgNxHWwJ7CHCIfd30FIAxRS2biEECJgkuRmxcUoWnK2SjtsHC8bSwGSKC5d7iwj5BUY2dYUW2SS91NDbrT1BFoTZ+NCZ+dGcTZ4VsUXBqAULw3AYqg4ZX3t84EeUxVWgpgDfEuQRC1vP7aFVgjZ+mOrTeeuxBnJliTm11rf1lnASuu6VA7h3QJ1qRz4O8tqOSy82GyXg0Uge8xZxlh3tsli68GI0Fo/D7K9bes0UF6LKOQdgq5KpchAUV2+AIuxOBN27Zh8Kh4mZGP0MCE8zB87L+3lMnwr8f/lx1EwDR9W9PgF);strokeColor=none;spacingTop=-3;spacingBottom=-3;spacingLeft=-3;spacingRight=-3;points=[];labelBackgroundColor=none;rounded=0;html=1;whiteSpace=wrap;" vertex="1" parent="_kVQEKYmX-MvldhjZqGz-62">
          <mxGeometry x="8.618333333333334" y="9.84954128440367" width="31.395357142857147" height="35.08899082568807" as="geometry" />
        </mxCell>
        <mxCell id="_kVQEKYmX-MvldhjZqGz-67" style="vsdxID=93;fillColor=#2d5967;gradientColor=none;shape=stencil(pZTBcoMgEEC/hisDu0bknKb/kWlMZWo1Q0xr/77QJREwxml7Y/GtPHaZZbg9N/tTzUCcB9u/1Z/mMDQMnxiA6ZramsGtGO4Ybo+9rV9tf+kOFJ/2nvSr9/7D/2GkPOEzQHxRpDccqp+dZ4JfLpZomeIh1Ior4sUItAWBCKEUIWVE2ig4FAHBFAlHtqaL/JyRKhPHDM8NdZUqTgK50VUxvgTmDC4UJrWc+LhMd9E/gisCK3Dac+SqSPiCS/WgBSUX8l+889mUD5sWpchbToVp5+K3ALdEKdPe+cOu/8KcuiscPckFPvdFrnWmG4nArMwwvxPOIFwoVir7y+at4m4xzYajaVsaLfH3fJa4LZpDuPsG);strokeColor=none;spacingTop=-3;spacingBottom=-3;spacingLeft=-3;spacingRight=-3;points=[];labelBackgroundColor=none;rounded=0;html=1;whiteSpace=wrap;" vertex="1" parent="_kVQEKYmX-MvldhjZqGz-62">
          <mxGeometry y="4.924770642201835" width="49.247619047619054" height="44.32293577981652" as="geometry" />
        </mxCell>
        <mxCell id="_kVQEKYmX-MvldhjZqGz-68" style="vsdxID=94;fillColor=#2d5967;gradientColor=none;shape=stencil(nZLRDoIwDEW/Zq/L1jmBZ9T/IDJkERkZoPD3MjfDBhES33rb06Y3LWJpW2aNQEDaTqu7eMm8KxE7IQBZl0LLbooQOyOWFkqLm1Z9nVvdZIY00UM9zYTB9iUcR9x0ARlthnzUxcKVrD34gGGDvfbaTqa2CA6lPksGCOToJESYJ45gIeEkj/ERfu9GgsUo2bDxLf4Fr9ZY2p4b6Nqac5vEoXsSOvePwnavsnPCKZiPX8iqsr/j15fPMqXso7HzGw==);strokeColor=none;spacingTop=-3;spacingBottom=-3;spacingLeft=-3;spacingRight=-3;points=[];labelBackgroundColor=none;rounded=0;html=1;whiteSpace=wrap;" vertex="1" parent="_kVQEKYmX-MvldhjZqGz-62">
          <mxGeometry width="49.247619047619054" height="3.077981651376147" as="geometry" />
        </mxCell>
        <mxCell id="_kVQEKYmX-MvldhjZqGz-69" value="&lt;div style=&quot;&quot;&gt;&lt;font style=&quot;color: rgb(0, 0, 0); direction: ltr; letter-spacing: 0px; line-height: 120%; opacity: 1;&quot;&gt;&lt;font style=&quot;font-size: 10px;&quot;&gt;Buckets&lt;/font&gt;&lt;br&gt;&lt;/font&gt;&lt;/div&gt;" style="verticalAlign=middle;align=center;vsdxID=96;fillColor=none;gradientColor=none;shape=stencil(nZBLDoAgDERP0z3SIyjew0SURgSD+Lu9kMZoXLhwN9O+tukAlrNpJg1SzDH4QW/URgNYgZTkjA4UkwJUgGXng+6DX1zLfmoymdXo17xh5zmRJ6Q42BWCfc2oJfdAr+Yv+AP9Cb7OJ3H/2JG1HNGz/84klThPVCc=);strokeColor=none;spacingTop=-3;spacingBottom=-3;spacingLeft=-3;spacingRight=-3;points=[];labelBackgroundColor=none;rounded=0;html=1;whiteSpace=wrap;" vertex="1" parent="_kVQEKYmX-MvldhjZqGz-57">
          <mxGeometry x="6.771547619047619" y="54.78807339449541" width="38.7825" height="12.311926605504588" as="geometry" />
        </mxCell>
        <mxCell id="_kVQEKYmX-MvldhjZqGz-71" style="vsdxID=69;fillColor=none;gradientColor=none;strokeColor=none;spacingTop=-3;spacingBottom=-3;spacingLeft=-3;spacingRight=-3;points=[];labelBackgroundColor=none;rounded=0;html=1;whiteSpace=wrap;aspect=fixed;" vertex="1" parent="LouCBtYuXIpQoT6YNALT-330">
          <mxGeometry x="525" y="165.45000000000002" width="26" height="26" as="geometry" />
        </mxCell>
        <mxCell id="_kVQEKYmX-MvldhjZqGz-72" style="vsdxID=70;fillColor=none;gradientColor=none;strokeColor=none;spacingTop=-3;spacingBottom=-3;spacingLeft=-3;spacingRight=-3;points=[];labelBackgroundColor=none;rounded=0;html=1;whiteSpace=wrap;" vertex="1" parent="_kVQEKYmX-MvldhjZqGz-71">
          <mxGeometry width="26.000000000000004" height="26.000000000000004" as="geometry" />
        </mxCell>
        <mxCell id="_kVQEKYmX-MvldhjZqGz-73" style="vsdxID=71;fillColor=#FFFFFF;gradientColor=none;shape=stencil(lZPRUsMgEEW/htcdYFnIPtf6Hx2bGsaYdNJU699LhEwgGq1vm8u5985kQeDu0hzOtdDyMg79S/3uj2Mj8EFo7bumHvwYJoF7gbtTP9TPQ3/tjvH7fJjIaXrt36aEW/SRBG0ml5YfUWEJhF/KYzQ8XYfoUBEwBMjJkiS2oHSUbjpKWAHNVJKYgWYKE6VAukThmtroVw40rvqz5FRml+CkVBUglfX2W7szQOq39swyKxaYy3IGrctyK0FxWa4IJJXtFH6tydtb32XLksWiTFgd3wvLbXDJuQNWsswlBqe28XBsXGGYA37G/76N/zaEYbn8J9+28e3k5+vHEqT40HD/CQ==);strokeColor=none;spacingTop=-3;spacingBottom=-3;spacingLeft=-3;spacingRight=-3;points=[];labelBackgroundColor=none;rounded=0;html=1;whiteSpace=wrap;" vertex="1" parent="_kVQEKYmX-MvldhjZqGz-72">
          <mxGeometry x="0.30952380952380953" y="0.30952380952380953" width="25.380952380952383" height="25.380952380952383" as="geometry" />
        </mxCell>
        <mxCell id="_kVQEKYmX-MvldhjZqGz-74" style="vsdxID=72;fillColor=#FFFFFF;gradientColor=none;shape=stencil(lVbLcsIwDPyaXD2WX7HPtP0PpoSSKSVMgJb+fZPa8ivECbcg72pteSVT8c3lsD03FaOXa999Nj/t7nqo+EvFWHs6NH17Hb4q/lrxzb7rm4++u5129vd5OyLHr6/ue8xwtzxuSK1GFqO/NsIIl/+BN4s/tqcIbxQRdYKXhlA1TwjLSAgpHhKEIVonBF0TZmLC+623ZwBHkURJR3Ehw4gRNnRn/qh+J2xymjt3KCCSOxSf2XCuD5polulHmZ2YDpXDiCLAUvkI5CI1JwJK6hHFRZT0JURx1EHp4VpcTb001KGKLiRl8W69VfCmgpvW4ctee9aby/jU+4J6jzg8LdiSrkVOTlnArk5Kn6hDil24kxQ8lKSGAhhXPR4yc6Z4EN7gOC0Etsqsm/2dgLcqdiS6OfQN+lkpX3X0cwRa20oRBbdTT8SHPhGQqpswAEpzRC+cnWsiTTZHoszMTzvQmb5KxSWdnN3QTDwb01Hze+WSyaIB4ghAC/5Vk15byB+WkRBSPPYaTa0cNrgyfyjB4wEA4dqzbpgZGE9NlyJ4+AgP+L49Hu37H6/nD/4Qsn8W+Osf);strokeColor=none;spacingTop=-3;spacingBottom=-3;spacingLeft=-3;spacingRight=-3;points=[];labelBackgroundColor=none;rounded=0;html=1;whiteSpace=wrap;" vertex="1" parent="_kVQEKYmX-MvldhjZqGz-72">
          <mxGeometry width="26.000000000000004" height="26.000000000000004" as="geometry" />
        </mxCell>
        <mxCell id="_kVQEKYmX-MvldhjZqGz-75" style="vsdxID=73;fillColor=none;gradientColor=none;strokeColor=none;spacingTop=-3;spacingBottom=-3;spacingLeft=-3;spacingRight=-3;points=[];labelBackgroundColor=none;rounded=0;html=1;whiteSpace=wrap;" vertex="1" parent="_kVQEKYmX-MvldhjZqGz-71">
          <mxGeometry x="0.30952380952380953" y="0.30952380952380953" width="24.452380952380953" height="24.452380952380953" as="geometry" />
        </mxCell>
        <mxCell id="_kVQEKYmX-MvldhjZqGz-76" style="vsdxID=74;fillColor=#2d5967;gradientColor=none;shape=stencil(nZTRVsMgDIafhtscIEDhes732HGd5VjbHdbpfHtBYBS1dfMu/PmSNvxNCW5O3e7YEk5Pkxtf2ne7nzqCD4RzO3Sts5OPCG4Jbg6ja5/deB728XzcBTJEr+Nb6HCJdYzSUMPpRzwrCuJLeIx0b4cZjQaUrHi6DNP/gf4ZWi7DTEDIzQqkAFa989PZxRFZKpHAWSpJkkRAHaULT5QqVJIkB4WJwkQ1hcIrxXDlzkCYekANuDLgTx4atYJrYPIO3oicvs1yn2UV7hsYs8x7N7Dur012bMEfb4Zuan8MBZ5vnl8plo1PkmGFKmZg7pUkwzN124B5JX7//O7al79oH5TFPNi+j3s9z39fZC/FnwBuPwE=);strokeColor=none;spacingTop=-3;spacingBottom=-3;spacingLeft=-3;spacingRight=-3;points=[];labelBackgroundColor=none;rounded=0;html=1;whiteSpace=wrap;" vertex="1" parent="_kVQEKYmX-MvldhjZqGz-75">
          <mxGeometry width="24.452380952380953" height="24.452380952380953" as="geometry" />
        </mxCell>
        <mxCell id="_kVQEKYmX-MvldhjZqGz-77" style="vsdxID=75;fillColor=#2d5967;gradientColor=none;shape=stencil(jVTbcoMgEP0aXhlgNaTPafIfmcRUplYzxrTw99FZ0QVK6xssZz2XRRgcHvX5XjElHkPffVY/5jrUDN6ZUqatq94M44rBkcHh1vXVR9892yvu7+cJOa2+uu/pCxb7pBBTjxIO9yVuT4i9PHsEyxg9F5Ti+x2WrMKS1lwWM2ouzU0WAg7hgB5nKAmDJxUhoQjJqCQIEbDFY+SQ2LEpgyddgsl59IAMKQ0tztrGHC5N2kKM+dVrY9rNsw/vSRlC9Z6X+i9DUHD1FiW59KxJSl5AaGpXci1DUxS1aYS0IdXjyanEVE9ukCskQ04MuFTP8pesYbhUjyenqE3OaUOqx6YZu1RPznky8/A2/XdDxsX6CN1M0+AbRs/jR2ss4YMHxxc=);strokeColor=none;spacingTop=-3;spacingBottom=-3;spacingLeft=-3;spacingRight=-3;points=[];labelBackgroundColor=none;rounded=0;html=1;whiteSpace=wrap;" vertex="1" parent="_kVQEKYmX-MvldhjZqGz-75">
          <mxGeometry x="4.023809523809524" y="4.023809523809524" width="4.023809523809524" height="4.023809523809524" as="geometry" />
        </mxCell>
        <mxCell id="_kVQEKYmX-MvldhjZqGz-78" style="vsdxID=76;fillColor=#2d5967;gradientColor=none;shape=stencil(jVTLcsMgDPwargxBIZ6e0/Q/Mo1TM3XtDHFS+PvaI8xDlNY3ECtWuxIwON67861lUtwnM3623/oydQxemZR66Fqjp3nF4MTgeB1N+2HGx3DB/e28IJfV1/hcbrCYtxNiyZHC4V7h9g2x7w+D4B1F+4CUfK8wZCWGmoYrH3I+5JMsZBzCQXpcoUwYVlKRE4qcLC0JcgRs0UgUJnJsybCSBmNqGldAhTQ1jXptKYcrnbZAMb9q7fWwuff5nDT8oP4AF3oifO3jgSsgPsZQkBTyakYGRI0Z+L4hLYyXepoXyYF0MK0PStSm0UkTynLCA0kqLOup6Y6Q2kNJ3CzrsYXBrizHUo83jdE/ozEv4udz1X2Pf1d6Tj+rOYQfHZx+AA==);strokeColor=none;spacingTop=-3;spacingBottom=-3;spacingLeft=-3;spacingRight=-3;points=[];labelBackgroundColor=none;rounded=0;html=1;whiteSpace=wrap;" vertex="1" parent="_kVQEKYmX-MvldhjZqGz-75">
          <mxGeometry x="1.5476190476190474" y="12.38095238095238" width="12.071428571428571" height="12.071428571428571" as="geometry" />
        </mxCell>
        <mxCell id="_kVQEKYmX-MvldhjZqGz-79" style="vsdxID=77;fillColor=#2d5967;gradientColor=none;shape=stencil(pZPbDsIgDIafpreEccj0es73WDImRISFzdPbCzZGo5lKuGvL95O2/ABvJt2NChid5uD36mz6WQPfAGPGaRXMHCPgLfBm8EHtgj+6HvOxS2SKDv6UbrigrqI0aRi9Yi5XRPB7ZYu4Ne4LLioi62Vc1mQtywR0GRaM0AL4RytZg2Yt8bOVbMHjHf5cYiaeaYJSPAZPew7GWnT36/m7nWMJvwJvbw==);strokeColor=none;spacingTop=-3;spacingBottom=-3;spacingLeft=-3;spacingRight=-3;points=[];labelBackgroundColor=none;rounded=0;html=1;whiteSpace=wrap;" vertex="1" parent="_kVQEKYmX-MvldhjZqGz-75">
          <mxGeometry x="4.642857142857143" y="15.785714285714286" width="5.261904761904762" height="5.261904761904762" as="geometry" />
        </mxCell>
        <mxCell id="_kVQEKYmX-MvldhjZqGz-80" value="&lt;div style=&quot;font-size: 10px;&quot;&gt;&lt;p style=&quot;margin: 0px; text-indent: 0px; direction: ltr; font-size: 10px;&quot;&gt;&lt;font style=&quot;font-size: 10px; color: rgb(0, 0, 0); direction: ltr; letter-spacing: 0px; line-height: 120%; opacity: 1;&quot;&gt;Tag&lt;br style=&quot;font-size: 10px;&quot;&gt;&lt;/font&gt;&lt;/p&gt;&lt;/div&gt;" style="verticalAlign=middle;align=left;vsdxID=79;fillColor=none;gradientColor=none;shape=stencil(nZBLDoAgDERP0z3SIyjew0SURgSD+Lu9kMZoXLhwN9O+tukAlrNpJg1SzDH4QW/URgNYgZTkjA4UkwJUgGXng+6DX1zLfmoymdXo17xh5zmRJ6Q42BWCfc2oJfdAr+Yv+AP9Cb7OJ3H/2JG1HNGz/84klThPVCc=);strokeColor=none;spacingTop=-3;spacingBottom=-3;spacingLeft=-3;spacingRight=-3;points=[];labelBackgroundColor=none;rounded=0;html=1;whiteSpace=wrap;fontSize=10;fontFamily=Helvetica;" vertex="1" parent="LouCBtYuXIpQoT6YNALT-330">
          <mxGeometry x="551" y="165.45" width="69" height="20" as="geometry" />
        </mxCell>
        <mxCell id="_kVQEKYmX-MvldhjZqGz-91" style="vsdxID=82;fillColor=none;gradientColor=none;strokeColor=none;spacingTop=-3;spacingBottom=-3;spacingLeft=-3;spacingRight=-3;points=[];labelBackgroundColor=none;rounded=0;html=1;whiteSpace=wrap;aspect=fixed;" vertex="1" parent="LouCBtYuXIpQoT6YNALT-330">
          <mxGeometry x="283" y="343" width="42" height="42" as="geometry" />
        </mxCell>
        <mxCell id="_kVQEKYmX-MvldhjZqGz-92" style="vsdxID=83;fillColor=none;gradientColor=none;strokeColor=none;spacingTop=-3;spacingBottom=-3;spacingLeft=-3;spacingRight=-3;points=[];labelBackgroundColor=none;rounded=0;html=1;whiteSpace=wrap;" vertex="1" parent="_kVQEKYmX-MvldhjZqGz-91">
          <mxGeometry width="42" height="42" as="geometry" />
        </mxCell>
        <mxCell id="_kVQEKYmX-MvldhjZqGz-93" style="vsdxID=84;fillColor=none;gradientColor=none;strokeColor=none;spacingTop=-3;spacingBottom=-3;spacingLeft=-3;spacingRight=-3;points=[];labelBackgroundColor=none;rounded=0;html=1;whiteSpace=wrap;" vertex="1" parent="_kVQEKYmX-MvldhjZqGz-92">
          <mxGeometry y="31.5" width="21.5" height="10" as="geometry" />
        </mxCell>
        <mxCell id="_kVQEKYmX-MvldhjZqGz-94" style="vsdxID=85;fillColor=#FFFFFF;gradientColor=none;shape=stencil(nZPbDoIwDIafZrfL1g6Baw/vYRRkEcEMVHx7WTrDBmrAu7b7uv09jOG6KfbXjIFoWlOfs4c+tgXDDQPQVZEZ3fYWwy3DdV6b7GTqW3Uk/7q3pLUu9d3e0FGesBkgnuRJQf6O0FJXX9FEcaG+wzEHGfBxxKMlPKz4yscPN0O65STBRaTkMUU6cBHgkWMgqKFDB6Qc0BHoEx81JjAWKX4pTBKeqlCiCPWlangeJkXgFMLPvQll+gmzev+e+szRjvEFS/M/2hvDCue6LOkH+Ofjle9D9F1w+wI=);strokeColor=none;spacingTop=-3;spacingBottom=-3;spacingLeft=-3;spacingRight=-3;points=[];labelBackgroundColor=none;rounded=0;html=1;whiteSpace=wrap;" vertex="1" parent="_kVQEKYmX-MvldhjZqGz-93">
          <mxGeometry x="0.49999999999999994" width="20.999999999999996" height="9" as="geometry" />
        </mxCell>
        <mxCell id="_kVQEKYmX-MvldhjZqGz-95" style="vsdxID=86;fillColor=#FFFFFF;gradientColor=none;shape=stencil(pZXddsIgDMefprc5EFo+rp2+h2fW2TNnPVU3ffvRAcrHCna7o+kvEJL8ScUWp9362FZITuehf2+/us15V7GXCrE77NqhO+tVxZYVW2z7oX0b+sthY76P65EcVx/957jD1fhJArwZvZDcjEWBoD+GleFfL4NxoNajcQC50ciFXNFCCiS3kDVRCbU96cpSypr0XhT94/fdwQ/X8zAWwUFM86oBpgJeMmjm8IoAqmmHGjj9F5+Ph1JocMZ9Uz5JaFxP34WmpXLVa4CLsKBe1V3xCIg6rGfcTVE5i903ly91N5neXEePchpO8oagwrSRMGX8nsS7BBA4hinzoOcU4DnYhiAgZeZWwEJcy5dN42RGs4WsRNdHT8AFlYQwJZmqJYLK0qm+s7j7+Se4cMcYLzwEES2E0+Pv9xQgQr4GwTN8DSRMI1eQCT7lUQINDoj1ol1qF9NDQnc9uMGhnx4nQgxl5YaGp2lWFHXhBdCLx2Tcdvu9Gaz+/3iSapOZwmz5DQ==);strokeColor=none;spacingTop=-3;spacingBottom=-3;spacingLeft=-3;spacingRight=-3;points=[];labelBackgroundColor=none;rounded=0;html=1;whiteSpace=wrap;" vertex="1" parent="_kVQEKYmX-MvldhjZqGz-93">
          <mxGeometry width="21.5" height="10" as="geometry" />
        </mxCell>
        <mxCell id="_kVQEKYmX-MvldhjZqGz-96" style="vsdxID=87;fillColor=none;gradientColor=none;strokeColor=none;spacingTop=-3;spacingBottom=-3;spacingLeft=-3;spacingRight=-3;points=[];labelBackgroundColor=none;rounded=0;html=1;whiteSpace=wrap;" vertex="1" parent="_kVQEKYmX-MvldhjZqGz-92">
          <mxGeometry x="1" width="41.00000000000001" height="40.5" as="geometry" />
        </mxCell>
        <mxCell id="_kVQEKYmX-MvldhjZqGz-97" style="vsdxID=88;fillColor=#FFFFFF;gradientColor=none;shape=stencil(lZbddtsgDMefxrc6gEDAdde9R8+aLj7Lkh433dK3nzwbbMkx3e4SLPH/IfRBhw9vx6fXQ+fM23W4/Dj87p+vxw6/dM715+Nh6K/8q8PHDh9eLsPh+3B5Pz9P/1+fRsvx18/Lr3GH2+SXEEwcvZz5mFYygQ9/V75ODqf+vHIIAZKwpwwu79t7C94Kh4CA+/bI+5O0T5DS2uHb+zAdwc4uBKmcYV4iA3lWvblqhWXjeYmwHNXccLbykOalj3mJArgWsNMRpATGNYEtGFLAGYyXwC7XSLtqFLzkdQlcUrzVakfeEUQdr9XORT5A2MgbLe/BZyWvTy/D5crXEi0fwGML10hUz5cmSY3ExFyvsGIuouWeIwRqZK1Kck6LOWQ7kJy1VnIiQiQJGpdMcdXIKdYEQV3oYrQjngH9RrzuO0tZAxg26kqcjWr1oT7H/fRHSF7EivcgauFyxSSUvAkIVblyl0CJS2Dyp9XqAW2DNgLJ9LMQ2rW6oBVYA0H1Fm/AqtgaSbpug7i22JH1DkjVqFGaHmxWmgtYkeXeJVX1eWV8iOMjM58Dam2LlLsCZUnKN2VVja6tlv4WJe1avdywhZwavB6ywP20ULnnpyRxeeTErHAdoC5VKnNu4bWg7nQx2pNfVaHdbjxrhbytVdo033CnVdSj3B/ePO1RxIvzEmMjvhmszAee/9iYhuPrQY7v5CD6fQdrjDSPzQLOqQzj+l5xYFtA/Fk9cHiLRgmMANKhIN43/98H1D848I/lvfbSn07Tc2/9Xb/veGl6G+LjHw==);strokeColor=none;spacingTop=-3;spacingBottom=-3;spacingLeft=-3;spacingRight=-3;points=[];labelBackgroundColor=none;rounded=0;html=1;whiteSpace=wrap;" vertex="1" parent="_kVQEKYmX-MvldhjZqGz-96">
          <mxGeometry x="0.5" y="0.49999999999999994" width="40" height="39.49999999999999" as="geometry" />
        </mxCell>
        <mxCell id="_kVQEKYmX-MvldhjZqGz-98" style="vsdxID=89;fillColor=#FFFFFF;gradientColor=none;shape=stencil(jVjZchw3DPyafUWR4DHks4//cMVytBVFcq1lR/n7YLPDA80dyG/SLDBogkCjMafw4cfjl+8PJ3Y/Xi8vfz38c/76+ngKH0/M5+fHh8v5Vf46hU+n8OHby+Xhz8vLz+evt/+/f7laXv/6++XX9Q1vN7/oqfqrF7t/b0+Y4vb/g883+z9+Xm4OfvdgKnX38ODi3ng3iuR5N+JmVPNuFLpRSbvR/iiQiv10fp6w5kw5a6yJcrHA5kI+AtiNfNZoZ6uGtlIpGu4cvsH1lA28geqm8IZIgU28gThovCGRQ7xMDrIrVgnSmz25AHi71VF8Ry4t8RPET7UdY44fvI6fCqUC8SMl44KTH6fv5bkFI8PTxe2vyGTYV8m/rqDCtLHhsJEGVDJFyz6TK8qhOgrGkeXnqE9QE5Vje4mfWNtv5KLhEMhV7YBFCJcgZa4j5I1yOnZYKUTu0ftjB6kCnSOpFDY5J+RRyr7X4JZ0Wc5Wo1OYdVleaxDaOJu0c21ySAgWwYLXdfZoePNKO8IxnVAYU93xcmkcN/DihWB84bhtCZ8hXZw7bU/hPbCIUOwWIbzdA8J6Ol3C8zGacIm9hhunacGLURsyjhiSNcVuT0prmPsMgncboP0QqxDCSpBI0BPz8ai6TWOtSx0u9IjBvaME42x+8R7L+9ZOc/gC9OxliHiIj+MBLlZKQTeuh/m39MHUa76dus9VXo24JRm7YO7tVobkra4ty/Alm2MqVbjZtQil5CpQzCR+mq6ZCDGA0W8yKNq/J9qcdbJrn+iDObiBQhHq1fWu7zewEUO9CgxjVM33ugOhXM0rEGkJ5d2pZoDl0YHcasoj2GnqhV6rwSjuuR16oGTCnfvML+B6N049ux6hd+MkvAJaHcQvFFArruEnguMlN12qUYBsLUpVZ0vqM+lkoQpBsA6QCvt5jdRpmLH16xhFI2jrNHsSScGx5gARjPYkShRhuckypYNGKvyEs2jrMm8e3DiMNhSDd4RDhg6Y33zcAjPK0QOov/H40LB5Sdd7+5Vce8V8hc6jBr/kIfUngqlQhSLynCEk7yjPPovva9tIWguPtN0Xz77nvolnc78oqXVBt6+NNY/kvNMLhnfOMN+64hnvT0aGqihx2EdQay8OeUMHZ/RY5S4Zx0KSrB1MfoYzyCsM+7LkVDDaDlzQwdpHRg77ltd18P1Z4Zw2T00VHL0f+qpIHRqNeC0yWDt7u9xXsaKq9CWkd5a8RF5fgvRSNIb5tRN1hIDXjNwgLgVkvfhsoP6yIxBUs5HxKaNbHX3K4L4gWuHjsgSNUTbip6ZcZq1spEuINugaHFP3aLGQnRHHuevD+41Xq2mPY8A7hW/TyNxxZZAmXaL44WURlaIZYFJNmnHM8AxonUZ6Rysb/PeO8JU/xnfOb+enp9tn0vl3/C4qj27fVMOn/wA=);strokeColor=none;spacingTop=-3;spacingBottom=-3;spacingLeft=-3;spacingRight=-3;points=[];labelBackgroundColor=none;rounded=0;html=1;whiteSpace=wrap;" vertex="1" parent="_kVQEKYmX-MvldhjZqGz-96">
          <mxGeometry width="41.00000000000001" height="40.5" as="geometry" />
        </mxCell>
        <mxCell id="_kVQEKYmX-MvldhjZqGz-99" style="vsdxID=90;fillColor=none;gradientColor=none;strokeColor=none;spacingTop=-3;spacingBottom=-3;spacingLeft=-3;spacingRight=-3;points=[];labelBackgroundColor=none;rounded=0;html=1;whiteSpace=wrap;" vertex="1" parent="_kVQEKYmX-MvldhjZqGz-91">
          <mxGeometry x="1" y="0.5" width="40" height="40" as="geometry" />
        </mxCell>
        <mxCell id="_kVQEKYmX-MvldhjZqGz-100" style="vsdxID=91;fillColor=#2d5967;gradientColor=none;shape=stencil(nZLdDsIgDIWfhlvC2qnhes73WDImRISF4d/bCzbG6cVE707br81JW4bNpLtRMRBTDP6gLqaPmuGWARinVTAxKYYtw2bwQe2DP7me4rHLZFZHf84TrtQnkcsqd4G4UUY8oh3B1rg5XHMJxTBwlKXwhq+LXYg3cIUc61K4Egtzn8W/4C82flvzMpzE65qDsZaeYV7/vH5K0edgewc=);strokeColor=none;spacingTop=-3;spacingBottom=-3;spacingLeft=-3;spacingRight=-3;points=[];labelBackgroundColor=none;rounded=0;html=1;whiteSpace=wrap;" vertex="1" parent="_kVQEKYmX-MvldhjZqGz-99">
          <mxGeometry y="38.50000000000001" width="19.5" height="1.5" as="geometry" />
        </mxCell>
        <mxCell id="_kVQEKYmX-MvldhjZqGz-101" style="vsdxID=92;fillColor=#2d5967;gradientColor=none;shape=stencil(pZRNcoMwDIVP463GlsyP12l6j0xDiqcUMg5pye0DtSm2CYFOd5b4ZJ7kN2K0u5SHc8GQX1rTfBTf+tiWjF4Yoq7Lwui2PzHaM9qdGlO8m+ZaH218PgzkcPpsvoYbOlsnOB9qkN9sTBKk+sm8Wvztaiwv4oIxkUCCNtWhTSkJGTnKpVxRRzbMcxgB8gH300rXvkYBqQpU8mcKE8A0lMhDeTyU5jdAIUELQwn1hRMcB/QQVQqkeIavj5tH3UwExmp/+5mYbR2tuiI0kRKAFBRkEoRcvj+HLPsXv2pTr8JlUAGJyKegZDi73jx5Gs3Ocx/F1GO1k7kX+Fit4sAjz/pKcD5mnDdFc2rba//5+TYU9Idp5Zx0VdmN5X+PV1SfsuuN9nc=);strokeColor=none;spacingTop=-3;spacingBottom=-3;spacingLeft=-3;spacingRight=-3;points=[];labelBackgroundColor=none;rounded=0;html=1;whiteSpace=wrap;" vertex="1" parent="_kVQEKYmX-MvldhjZqGz-99">
          <mxGeometry x="1" y="31.5" width="17" height="5.500000000000001" as="geometry" />
        </mxCell>
        <mxCell id="_kVQEKYmX-MvldhjZqGz-102" style="vsdxID=93;fillColor=#2d5967;gradientColor=none;shape=stencil(lVHLDoMgEPwargRYLXi29j9MxEpKwSD28feFkqZqo4232WVmdsIgKIeu7iViZPDOXuRdNb5DcESMKdNJp3xACCoEZWudPDs7mibNfR2ZEV3tLTo8ko4SEjWMPD8zZvS9OSW6VmZCFwU+wExA1slzZ8Exz9fJ4TDwRZQN74zivNjj/5s8Y1hsBtr1M3/pAXxLaJXWqcPp+7K0sEqFQ/UC);strokeColor=none;spacingTop=-3;spacingBottom=-3;spacingLeft=-3;spacingRight=-3;points=[];labelBackgroundColor=none;rounded=0;html=1;whiteSpace=wrap;" vertex="1" parent="_kVQEKYmX-MvldhjZqGz-99">
          <mxGeometry x="35" y="33.5" width="4.5" height="4.5" as="geometry" />
        </mxCell>
        <mxCell id="_kVQEKYmX-MvldhjZqGz-103" style="vsdxID=94;fillColor=#2d5967;gradientColor=none;shape=stencil(lVhJcttADHyNrqjZl7Pj/MMVy7EqiuSS7cT6fcCQswAjQtJNHjeIHqCxkBv78P769LbdGPX+cTr+2v7dPX+8buy3jTG7w+v2tPvAXxv7uLEPL8fT9ufp+Hl4nv9+e5qQ06/fxz/TE75mu6jBpMnKqPN84hNE/f/k+2yw3x06A28gW2Lg8GQdHxQER/DWgza9wY/P00xJLyYaXDHR1SaE+ejLLCgDfgEtJzaAzgvILiALhazloDXvDmxk3rsHF+9IKDP3HcfiPoDLzL+D5IVwZXCahkuDyBczqDTjq8Awvj1qOTIRrGd8O+/LkfHg4jpf5yHS9GoIWuLrHGhP+SrK1aEmDeWqKE+bwQbKk7ulNDGDjtJ04INEc8oTEyGqIFKmPWg5SuATI9vsKlkFLqyzxX9XCTb+It0MaiyZpcyaaMEmyrYH2RKYyCUbIFqBLaRAyWYISSKrKFPMt/eUqaI0UTPGUZqd10Ic4yxIAIXsaeNCteco8ZwCZinXqCAmyhXrqNT9uVWb1ZQvCiMaSrih1vznlgs9PrnkUNccVv8dS1tRmfkf7s9qphP3YhBBiZ27L7NSNNg/mAx7VFGmZWx9yWVji9cUVIhTKBnC1tvS3y4PslRjdF7JBzVIETxtzVopqYgVAaO5W0ffPYdvMKCTfqpKqv9YimotoKUqa8s0wqAfE3AFb0HlO/A4SyPlgyWlSYKHUR6H0Yg2XI49ylRU4JtE576VdJZGuYVEA35tlKOFD5SvNcPQ6XYaM4La4qP45qOlPW2URyojZa3YuyFcuhNEPiE7UGlOtYy6cR4YWVmb17XMtN81v7rlKaH3Taml4rza+/oG3/TH97BJfywePaopS7MhPPhn1dQmRS0vLW4MuAAxunWRb5tYw5iK4b16XBgQZIX1JpY+tbowcHxOHO/EwdlZaG5SL5fqTnE2I8gOIHsT2QtSw6qWCwnLl9FtNq2SOlTrBImX0oUxL0v9htpgxdQRqZNHCyHRrWHVEGqpuhNvnPgEAe9HQZmyYVwullwW2lotuJBLSR36jcfXWimo98boBgOaBVyH2KVDKm8Na29qLvE7SFHFl0j6EoJP8MIV0H9gQsKFShg52fF3XXlHGhew7MQr3x2jGwzwR/uW8rLb7+dPMf3/+bcXPJq/29jHfw==);strokeColor=none;spacingTop=-3;spacingBottom=-3;spacingLeft=-3;spacingRight=-3;points=[];labelBackgroundColor=none;rounded=0;html=1;whiteSpace=wrap;" vertex="1" parent="_kVQEKYmX-MvldhjZqGz-99">
          <mxGeometry x="1" width="37.5" height="37.5" as="geometry" />
        </mxCell>
        <mxCell id="_kVQEKYmX-MvldhjZqGz-104" value="&lt;div style=&quot;font-size: 10px;&quot;&gt;&lt;p style=&quot;margin: 0px; text-indent: 0px; direction: ltr; font-size: 10px;&quot;&gt;&lt;font style=&quot;font-size: 10px; color: rgb(0, 0, 0); direction: ltr; letter-spacing: 0px; line-height: 120%; opacity: 1;&quot;&gt;Policies&lt;br style=&quot;font-size: 10px;&quot;&gt;&lt;/font&gt;&lt;/p&gt;&lt;/div&gt;" style="verticalAlign=middle;align=center;vsdxID=96;fillColor=none;gradientColor=none;shape=stencil(nZBLDoAgDERP0z3SIyjew0SURgSD+Lu9kMZoXLhwN9O+tukAlrNpJg1SzDH4QW/URgNYgZTkjA4UkwJUgGXng+6DX1zLfmoymdXo17xh5zmRJ6Q42BWCfc2oJfdAr+Yv+AP9Cb7OJ3H/2JG1HNGz/84klThPVCc=);strokeColor=none;spacingTop=-3;spacingBottom=-3;spacingLeft=-3;spacingRight=-3;points=[];labelBackgroundColor=none;rounded=0;html=1;whiteSpace=wrap;fontFamily=Helvetica;fontSize=10;" vertex="1" parent="LouCBtYuXIpQoT6YNALT-330">
          <mxGeometry x="270" y="385" width="68" height="20" as="geometry" />
        </mxCell>
        <mxCell id="_kVQEKYmX-MvldhjZqGz-106" value="Allow dynamic-group DYNAMIC_GROUP to manage objects in compartment COMPARTMENT" style="text;strokeColor=none;align=left;fillColor=none;html=1;verticalAlign=middle;whiteSpace=wrap;rounded=0;" vertex="1" parent="LouCBtYuXIpQoT6YNALT-330">
          <mxGeometry x="330" y="349" width="540" height="30" as="geometry" />
        </mxCell>
        <mxCell id="_kVQEKYmX-MvldhjZqGz-107" value="Dynamic Group" style="whiteSpace=wrap;html=1;align=left;fontSize=10;verticalAlign=top;fillColor=none;dashed=1;dashPattern=12 12;" vertex="1" parent="LouCBtYuXIpQoT6YNALT-330">
          <mxGeometry x="520" y="140.45" width="120" height="60" as="geometry" />
        </mxCell>
      </root>
    </mxGraphModel>
  </diagram>
</mxfile>
